<?xml version="1.0" encoding="UTF-8" standalone="no"?><svg xmlns="http://www.w3.org/2000/svg" xmlns:xlink="http://www.w3.org/1999/xlink" contentScriptType="application/ecmascript" contentStyleType="text/css" height="345px" preserveAspectRatio="none" style="width:329px;height:345px;" version="1.1" viewBox="0 0 329 345" width="329px" zoomAndPan="magnify"><defs><filter height="300%" id="fp5zlhbz5qi8d" width="300%" x="-1" y="-1"><feGaussianBlur result="blurOut" stdDeviation="2.0"/><feColorMatrix in="blurOut" result="blurOut2" type="matrix" values="0 0 0 0 0 0 0 0 0 0 0 0 0 0 0 0 0 0 .4 0"/><feOffset dx="4.0" dy="4.0" in="blurOut2" result="blurOut3"/><feBlend in="SourceGraphic" in2="blurOut3" mode="normal"/></filter></defs><rect width="100%" height="100%" fill="#FFFFFF"/><g><text fill="#000000" font-family="sans-serif" font-size="18" lengthAdjust="spacingAndGlyphs" textLength="305" x="12" y="26.708">EventService: отправка события</text><line style="stroke: #A80036; stroke-width: 1.0; stroke-dasharray: 5.0,5.0;" x1="38.25" x2="38.25" y1="121.25" y2="257.7813"/><line style="stroke: #A80036; stroke-width: 1.0; stroke-dasharray: 5.0,5.0;" x1="138.75" x2="138.75" y1="121.25" y2="257.7813"/><line style="stroke: #A80036; stroke-width: 1.0; stroke-dasharray: 5.0,5.0;" x1="260.75" x2="260.75" y1="121.25" y2="257.7813"/><text fill="#000000" font-family="sans-serif" font-size="14" lengthAdjust="spacingAndGlyphs" textLength="50" x="10.25" y="117.9482">Service</text><ellipse cx="38.25" cy="47.9531" fill="#FEFECE" filter="url(#fp5zlhbz5qi8d)" rx="8" ry="8" style="stroke: #A80036; stroke-width: 2.0;"/><path d="M38.25,55.9531 L38.25,82.9531 M25.25,63.9531 L51.25,63.9531 M38.25,82.9531 L25.25,97.9531 M38.25,82.9531 L51.25,97.9531 " fill="none" filter="url(#fp5zlhbz5qi8d)" style="stroke: #A80036; stroke-width: 2.0;"/><text fill="#000000" font-family="sans-serif" font-size="14" lengthAdjust="spacingAndGlyphs" textLength="50" x="10.25" y="269.7764">Service</text><ellipse cx="38.25" cy="283.0781" fill="#FEFECE" filter="url(#fp5zlhbz5qi8d)" rx="8" ry="8" style="stroke: #A80036; stroke-width: 2.0;"/><path d="M38.25,291.0781 L38.25,318.0781 M25.25,299.0781 L51.25,299.0781 M38.25,318.0781 L25.25,333.0781 M38.25,318.0781 L51.25,333.0781 " fill="none" filter="url(#fp5zlhbz5qi8d)" style="stroke: #A80036; stroke-width: 2.0;"/><rect fill="#FEFECE" filter="url(#fp5zlhbz5qi8d)" height="30.2969" style="stroke: #A80036; stroke-width: 1.5;" width="103" x="85.75" y="85.9531"/><text fill="#000000" font-family="sans-serif" font-size="14" lengthAdjust="spacingAndGlyphs" textLength="89" x="92.75" y="105.9482">EventService</text><rect fill="#FEFECE" filter="url(#fp5zlhbz5qi8d)" height="30.2969" style="stroke: #A80036; stroke-width: 1.5;" width="103" x="85.75" y="256.7813"/><text fill="#000000" font-family="sans-serif" font-size="14" lengthAdjust="spacingAndGlyphs" textLength="89" x="92.75" y="276.7764">EventService</text><rect fill="#FEFECE" filter="url(#fp5zlhbz5qi8d)" height="30.2969" style="stroke: #A80036; stroke-width: 1.5;" width="112" x="202.75" y="85.9531"/><text fill="#000000" font-family="sans-serif" font-size="14" lengthAdjust="spacingAndGlyphs" textLength="98" x="209.75" y="105.9482">DataBusClient</text><rect fill="#FEFECE" filter="url(#fp5zlhbz5qi8d)" height="30.2969" style="stroke: #A80036; stroke-width: 1.5;" width="112" x="202.75" y="256.7813"/><text fill="#000000" font-family="sans-serif" font-size="14" lengthAdjust="spacingAndGlyphs" textLength="98" x="209.75" y="276.7764">DataBusClient</text><polygon fill="#A80036" points="127.25,148.3828,137.25,152.3828,127.25,156.3828,131.25,152.3828" style="stroke: #A80036; stroke-width: 1.0;"/><line style="stroke: #A80036; stroke-width: 1.0;" x1="38.25" x2="133.25" y1="152.3828" y2="152.3828"/><text fill="#000000" font-family="sans-serif" font-size="13" lengthAdjust="spacingAndGlyphs" textLength="77" x="45.25" y="147.3169">send(event)</text><polygon fill="#A80036" points="248.75,177.5156,258.75,181.5156,248.75,185.5156,252.75,181.5156" style="stroke: #A80036; stroke-width: 1.0;"/><line style="stroke: #A80036; stroke-width: 1.0;" x1="139.25" x2="254.75" y1="181.5156" y2="181.5156"/><text fill="#000000" font-family="sans-serif" font-size="13" lengthAdjust="spacingAndGlyphs" textLength="53" x="146.25" y="176.4497">send(...)</text><polygon fill="#A80036" points="150.25,206.6484,140.25,210.6484,150.25,214.6484,146.25,210.6484" style="stroke: #A80036; stroke-width: 1.0;"/><line style="stroke: #A80036; stroke-width: 1.0; stroke-dasharray: 2.0,2.0;" x1="144.25" x2="259.75" y1="210.6484" y2="210.6484"/><text fill="#000000" font-family="sans-serif" font-size="13" lengthAdjust="spacingAndGlyphs" textLength="22" x="156.25" y="205.5825">ack</text><polygon fill="#A80036" points="49.25,235.7813,39.25,239.7813,49.25,243.7813,45.25,239.7813" style="stroke: #A80036; stroke-width: 1.0;"/><line style="stroke: #A80036; stroke-width: 1.0; stroke-dasharray: 2.0,2.0;" x1="43.25" x2="138.25" y1="239.7813" y2="239.7813"/><text fill="#000000" font-family="sans-serif" font-size="13" lengthAdjust="spacingAndGlyphs" textLength="39" x="55.25" y="234.7153">return</text><!--MD5=[99151516c268851bd37689dc807e5b5c]
@startuml
skinparam backgroundColor #FFFFFF
title EventService: отправка события
actor Service
participant EventService
participant DataBusClient

Service -> EventService : send(event)
EventService -> DataBusClient : send(...)
DataBusClient - -> EventService : ack
EventService - -> Service : return
@enduml

PlantUML version 1.2020.02(Sun Mar 01 10:22:07 UTC 2020)
(GPL source distribution)
Java Runtime: OpenJDK Runtime Environment
JVM: OpenJDK 64-Bit Server VM
Java Version: 21.0.2+13-58
Operating System: Linux
Default Encoding: UTF-8
Language: en
Country: null
--></g></svg>