<?xml version="1.0" encoding="UTF-8" standalone="no"?><svg xmlns="http://www.w3.org/2000/svg" xmlns:xlink="http://www.w3.org/1999/xlink" contentScriptType="application/ecmascript" contentStyleType="text/css" height="368px" preserveAspectRatio="none" style="width:779px;height:368px;" version="1.1" viewBox="0 0 779 368" width="779px" zoomAndPan="magnify"><defs><filter height="300%" id="f1sgw9ol0j6rb1" width="300%" x="-1" y="-1"><feGaussianBlur result="blurOut" stdDeviation="2.0"/><feColorMatrix in="blurOut" result="blurOut2" type="matrix" values="0 0 0 0 0 0 0 0 0 0 0 0 0 0 0 0 0 0 .4 0"/><feOffset dx="4.0" dy="4.0" in="blurOut2" result="blurOut3"/><feBlend in="SourceGraphic" in2="blurOut3" mode="normal"/></filter></defs><g><line style="stroke: #A80036; stroke-width: 1.0; stroke-dasharray: 5.0,5.0;" x1="41" x2="41" y1="86.2969" y2="281.0938"/><line style="stroke: #A80036; stroke-width: 1.0; stroke-dasharray: 5.0,5.0;" x1="248.5" x2="248.5" y1="86.2969" y2="281.0938"/><line style="stroke: #A80036; stroke-width: 1.0; stroke-dasharray: 5.0,5.0;" x1="528.5" x2="528.5" y1="86.2969" y2="281.0938"/><line style="stroke: #A80036; stroke-width: 1.0; stroke-dasharray: 5.0,5.0;" x1="677" x2="677" y1="86.2969" y2="281.0938"/><line style="stroke: #A80036; stroke-width: 1.0; stroke-dasharray: 5.0,5.0;" x1="738" x2="738" y1="86.2969" y2="281.0938"/><text fill="#000000" font-family="sans-serif" font-size="14" lengthAdjust="spacingAndGlyphs" textLength="61" x="8" y="82.9951">Operator</text><ellipse cx="41.5" cy="13" fill="#FEFECE" filter="url(#f1sgw9ol0j6rb1)" rx="8" ry="8" style="stroke: #A80036; stroke-width: 2.0;"/><path d="M41.5,21 L41.5,48 M28.5,29 L54.5,29 M41.5,48 L28.5,63 M41.5,48 L54.5,63 " fill="none" filter="url(#f1sgw9ol0j6rb1)" style="stroke: #A80036; stroke-width: 2.0;"/><text fill="#000000" font-family="sans-serif" font-size="14" lengthAdjust="spacingAndGlyphs" textLength="61" x="8" y="293.0889">Operator</text><ellipse cx="41.5" cy="306.3906" fill="#FEFECE" filter="url(#f1sgw9ol0j6rb1)" rx="8" ry="8" style="stroke: #A80036; stroke-width: 2.0;"/><path d="M41.5,314.3906 L41.5,341.3906 M28.5,322.3906 L54.5,322.3906 M41.5,341.3906 L28.5,356.3906 M41.5,341.3906 L54.5,356.3906 " fill="none" filter="url(#f1sgw9ol0j6rb1)" style="stroke: #A80036; stroke-width: 2.0;"/><rect fill="#FEFECE" filter="url(#f1sgw9ol0j6rb1)" height="30.2969" style="stroke: #A80036; stroke-width: 1.5;" width="166" x="163.5" y="51"/><text fill="#000000" font-family="sans-serif" font-size="14" lengthAdjust="spacingAndGlyphs" textLength="152" x="170.5" y="70.9951">ServicePointController</text><rect fill="#FEFECE" filter="url(#f1sgw9ol0j6rb1)" height="30.2969" style="stroke: #A80036; stroke-width: 1.5;" width="166" x="163.5" y="280.0938"/><text fill="#000000" font-family="sans-serif" font-size="14" lengthAdjust="spacingAndGlyphs" textLength="152" x="170.5" y="300.0889">ServicePointController</text><rect fill="#FEFECE" filter="url(#f1sgw9ol0j6rb1)" height="30.2969" style="stroke: #A80036; stroke-width: 1.5;" width="92" x="480.5" y="51"/><text fill="#000000" font-family="sans-serif" font-size="14" lengthAdjust="spacingAndGlyphs" textLength="78" x="487.5" y="70.9951">VisitService</text><rect fill="#FEFECE" filter="url(#f1sgw9ol0j6rb1)" height="30.2969" style="stroke: #A80036; stroke-width: 1.5;" width="92" x="480.5" y="280.0938"/><text fill="#000000" font-family="sans-serif" font-size="14" lengthAdjust="spacingAndGlyphs" textLength="78" x="487.5" y="300.0889">VisitService</text><text fill="#000000" font-family="sans-serif" font-size="14" lengthAdjust="spacingAndGlyphs" textLength="39" x="655" y="82.9951">Redis</text><path d="M659.5,34 C659.5,24 677.5,24 677.5,24 C677.5,24 695.5,24 695.5,34 L695.5,60 C695.5,70 677.5,70 677.5,70 C677.5,70 659.5,70 659.5,60 L659.5,34 " fill="#FEFECE" filter="url(#f1sgw9ol0j6rb1)" style="stroke: #000000; stroke-width: 1.5;"/><path d="M659.5,34 C659.5,44 677.5,44 677.5,44 C677.5,44 695.5,44 695.5,34 " fill="none" style="stroke: #000000; stroke-width: 1.5;"/><text fill="#000000" font-family="sans-serif" font-size="14" lengthAdjust="spacingAndGlyphs" textLength="39" x="655" y="293.0889">Redis</text><path d="M659.5,306.3906 C659.5,296.3906 677.5,296.3906 677.5,296.3906 C677.5,296.3906 695.5,296.3906 695.5,306.3906 L695.5,332.3906 C695.5,342.3906 677.5,342.3906 677.5,342.3906 C677.5,342.3906 659.5,342.3906 659.5,332.3906 L659.5,306.3906 " fill="#FEFECE" filter="url(#f1sgw9ol0j6rb1)" style="stroke: #000000; stroke-width: 1.5;"/><path d="M659.5,306.3906 C659.5,316.3906 677.5,316.3906 677.5,316.3906 C677.5,316.3906 695.5,316.3906 695.5,306.3906 " fill="none" style="stroke: #000000; stroke-width: 1.5;"/><path d="M715,60 L762,60 C767,60 767,73.1484 767,73.1484 C767,73.1484 767,86.2969 762,86.2969 L715,86.2969 C710,86.2969 710,73.1484 710,73.1484 C710,73.1484 710,60 715,60 " fill="#FEFECE" filter="url(#f1sgw9ol0j6rb1)" style="stroke: #A80036; stroke-width: 2.0;"/><path d="M762,60 C757,60 757,73.1484 757,73.1484 C757,86.2969 762,86.2969 762,86.2969 " fill="none" style="stroke: #A80036; stroke-width: 2.0;"/><text fill="#000000" font-family="sans-serif" font-size="14" lengthAdjust="spacingAndGlyphs" textLength="37" x="715" y="77.9951">Kafka</text><path d="M715,280.0938 L762,280.0938 C767,280.0938 767,293.2422 767,293.2422 C767,293.2422 767,306.3906 762,306.3906 L715,306.3906 C710,306.3906 710,293.2422 710,293.2422 C710,293.2422 710,280.0938 715,280.0938 " fill="#FEFECE" filter="url(#f1sgw9ol0j6rb1)" style="stroke: #A80036; stroke-width: 2.0;"/><path d="M762,280.0938 C757,280.0938 757,293.2422 757,293.2422 C757,306.3906 762,306.3906 762,306.3906 " fill="none" style="stroke: #A80036; stroke-width: 2.0;"/><text fill="#000000" font-family="sans-serif" font-size="14" lengthAdjust="spacingAndGlyphs" textLength="37" x="715" y="298.0889">Kafka</text><polygon fill="#A80036" points="236.5,113.4297,246.5,117.4297,236.5,121.4297,240.5,117.4297" style="stroke: #A80036; stroke-width: 1.0;"/><line style="stroke: #A80036; stroke-width: 1.0;" x1="41.5" x2="242.5" y1="117.4297" y2="117.4297"/><text fill="#000000" font-family="sans-serif" font-size="13" lengthAdjust="spacingAndGlyphs" textLength="183" x="48.5" y="112.3638">PUT /servicepoint/.../visit/end</text><polygon fill="#A80036" points="516.5,142.5625,526.5,146.5625,516.5,150.5625,520.5,146.5625" style="stroke: #A80036; stroke-width: 1.0;"/><line style="stroke: #A80036; stroke-width: 1.0;" x1="248.5" x2="522.5" y1="146.5625" y2="146.5625"/><text fill="#000000" font-family="sans-serif" font-size="13" lengthAdjust="spacingAndGlyphs" textLength="256" x="255.5" y="141.4966">endVisit(branchId, servicePointId, visitId)</text><polygon fill="#A80036" points="665.5,171.6953,675.5,175.6953,665.5,179.6953,669.5,175.6953" style="stroke: #A80036; stroke-width: 1.0;"/><line style="stroke: #A80036; stroke-width: 1.0;" x1="528.5" x2="671.5" y1="175.6953" y2="175.6953"/><text fill="#000000" font-family="sans-serif" font-size="13" lengthAdjust="spacingAndGlyphs" textLength="125" x="535.5" y="170.6294">remove from cache</text><polygon fill="#A80036" points="726.5,200.8281,736.5,204.8281,726.5,208.8281,730.5,204.8281" style="stroke: #A80036; stroke-width: 1.0;"/><line style="stroke: #A80036; stroke-width: 1.0;" x1="528.5" x2="732.5" y1="204.8281" y2="204.8281"/><text fill="#000000" font-family="sans-serif" font-size="13" lengthAdjust="spacingAndGlyphs" textLength="84" x="535.5" y="199.7622">VISIT_ENDED</text><polygon fill="#A80036" points="259.5,229.9609,249.5,233.9609,259.5,237.9609,255.5,233.9609" style="stroke: #A80036; stroke-width: 1.0;"/><line style="stroke: #A80036; stroke-width: 1.0; stroke-dasharray: 2.0,2.0;" x1="253.5" x2="527.5" y1="233.9609" y2="233.9609"/><text fill="#000000" font-family="sans-serif" font-size="13" lengthAdjust="spacingAndGlyphs" textLength="27" x="265.5" y="228.895">Visit</text><polygon fill="#A80036" points="52.5,259.0938,42.5,263.0938,52.5,267.0938,48.5,263.0938" style="stroke: #A80036; stroke-width: 1.0;"/><line style="stroke: #A80036; stroke-width: 1.0; stroke-dasharray: 2.0,2.0;" x1="46.5" x2="247.5" y1="263.0938" y2="263.0938"/><text fill="#000000" font-family="sans-serif" font-size="13" lengthAdjust="spacingAndGlyphs" textLength="46" x="58.5" y="258.0278">200 OK</text><!--MD5=[bd79f52e78780d5676c44c04b53d17d8]
@startuml
actor Operator
participant API as "ServicePointController"
participant Visit as "VisitService"
database Redis
queue Kafka
Operator -> API: PUT /servicepoint/.../visit/end
API -> Visit: endVisit(branchId, servicePointId, visitId)
Visit -> Redis: remove from cache
Visit -> Kafka: VISIT_ENDED
Visit - -> API: Visit
API - -> Operator: 200 OK
@enduml

PlantUML version 1.2020.02(Sun Mar 01 10:22:07 UTC 2020)
(GPL source distribution)
Java Runtime: OpenJDK Runtime Environment
JVM: OpenJDK 64-Bit Server VM
Java Version: 21.0.2+13-58
Operating System: Linux
Default Encoding: UTF-8
Language: en
Country: null
--></g></svg>