<?xml version="1.0" encoding="UTF-8" standalone="no"?><svg xmlns="http://www.w3.org/2000/svg" xmlns:xlink="http://www.w3.org/1999/xlink" contentScriptType="application/ecmascript" contentStyleType="text/css" height="440px" preserveAspectRatio="none" style="width:1053px;height:440px;" version="1.1" viewBox="0 0 1053 440" width="1053px" zoomAndPan="magnify"><defs><filter height="300%" id="fgy2e94lul0oq" width="300%" x="-1" y="-1"><feGaussianBlur result="blurOut" stdDeviation="2.0"/><feColorMatrix in="blurOut" result="blurOut2" type="matrix" values="0 0 0 0 0 0 0 0 0 0 0 0 0 0 0 0 0 0 .4 0"/><feOffset dx="4.0" dy="4.0" in="blurOut2" result="blurOut3"/><feBlend in="SourceGraphic" in2="blurOut3" mode="normal"/></filter></defs><rect width="100%" height="100%" fill="#FFFFFF"/><g><line style="stroke: #A80036; stroke-width: 1.0; stroke-dasharray: 5.0,5.0;" x1="41" x2="41" y1="86.2969" y2="353.3594"/><line style="stroke: #A80036; stroke-width: 1.0; stroke-dasharray: 5.0,5.0;" x1="426" x2="426" y1="86.2969" y2="353.3594"/><line style="stroke: #A80036; stroke-width: 1.0; stroke-dasharray: 5.0,5.0;" x1="569" x2="569" y1="86.2969" y2="353.3594"/><line style="stroke: #A80036; stroke-width: 1.0; stroke-dasharray: 5.0,5.0;" x1="753" x2="753" y1="86.2969" y2="353.3594"/><line style="stroke: #A80036; stroke-width: 1.0; stroke-dasharray: 5.0,5.0;" x1="896" x2="896" y1="86.2969" y2="353.3594"/><line style="stroke: #A80036; stroke-width: 1.0; stroke-dasharray: 5.0,5.0;" x1="1007.5" x2="1007.5" y1="86.2969" y2="353.3594"/><text fill="#000000" font-family="sans-serif" font-size="14" lengthAdjust="spacingAndGlyphs" textLength="61" x="8" y="82.9951">Operator</text><ellipse cx="41.5" cy="13" fill="#FEFECE" filter="url(#fgy2e94lul0oq)" rx="8" ry="8" style="stroke: #A80036; stroke-width: 2.0;"/><path d="M41.5,21 L41.5,48 M28.5,29 L54.5,29 M41.5,48 L28.5,63 M41.5,48 L54.5,63 " fill="none" filter="url(#fgy2e94lul0oq)" style="stroke: #A80036; stroke-width: 2.0;"/><text fill="#000000" font-family="sans-serif" font-size="14" lengthAdjust="spacingAndGlyphs" textLength="61" x="8" y="365.3545">Operator</text><ellipse cx="41.5" cy="378.6563" fill="#FEFECE" filter="url(#fgy2e94lul0oq)" rx="8" ry="8" style="stroke: #A80036; stroke-width: 2.0;"/><path d="M41.5,386.6563 L41.5,413.6563 M28.5,394.6563 L54.5,394.6563 M41.5,413.6563 L28.5,428.6563 M41.5,413.6563 L54.5,428.6563 " fill="none" filter="url(#fgy2e94lul0oq)" style="stroke: #A80036; stroke-width: 2.0;"/><rect fill="#FEFECE" filter="url(#fgy2e94lul0oq)" height="30.2969" style="stroke: #A80036; stroke-width: 1.5;" width="173" x="338" y="51"/><text fill="#000000" font-family="sans-serif" font-size="14" lengthAdjust="spacingAndGlyphs" textLength="159" x="345" y="70.9951">ConfigurationController</text><rect fill="#FEFECE" filter="url(#fgy2e94lul0oq)" height="30.2969" style="stroke: #A80036; stroke-width: 1.5;" width="173" x="338" y="352.3594"/><text fill="#000000" font-family="sans-serif" font-size="14" lengthAdjust="spacingAndGlyphs" textLength="159" x="345" y="372.3545">ConfigurationController</text><rect fill="#FEFECE" filter="url(#fgy2e94lul0oq)" height="30.2969" style="stroke: #A80036; stroke-width: 1.5;" width="84" x="525" y="51"/><text fill="#000000" font-family="sans-serif" font-size="14" lengthAdjust="spacingAndGlyphs" textLength="70" x="532" y="70.9951">Scheduler</text><rect fill="#FEFECE" filter="url(#fgy2e94lul0oq)" height="30.2969" style="stroke: #A80036; stroke-width: 1.5;" width="84" x="525" y="352.3594"/><text fill="#000000" font-family="sans-serif" font-size="14" lengthAdjust="spacingAndGlyphs" textLength="70" x="532" y="372.3545">Scheduler</text><rect fill="#FEFECE" filter="url(#fgy2e94lul0oq)" height="30.2969" style="stroke: #A80036; stroke-width: 1.5;" width="166" x="668" y="51"/><text fill="#000000" font-family="sans-serif" font-size="14" lengthAdjust="spacingAndGlyphs" textLength="152" x="675" y="70.9951">ServicePointController</text><rect fill="#FEFECE" filter="url(#fgy2e94lul0oq)" height="30.2969" style="stroke: #A80036; stroke-width: 1.5;" width="166" x="668" y="352.3594"/><text fill="#000000" font-family="sans-serif" font-size="14" lengthAdjust="spacingAndGlyphs" textLength="152" x="675" y="372.3545">ServicePointController</text><rect fill="#FEFECE" filter="url(#fgy2e94lul0oq)" height="30.2969" style="stroke: #A80036; stroke-width: 1.5;" width="92" x="848" y="51"/><text fill="#000000" font-family="sans-serif" font-size="14" lengthAdjust="spacingAndGlyphs" textLength="78" x="855" y="70.9951">VisitService</text><rect fill="#FEFECE" filter="url(#fgy2e94lul0oq)" height="30.2969" style="stroke: #A80036; stroke-width: 1.5;" width="92" x="848" y="352.3594"/><text fill="#000000" font-family="sans-serif" font-size="14" lengthAdjust="spacingAndGlyphs" textLength="78" x="855" y="372.3545">VisitService</text><path d="M984.5,60 L1031.5,60 C1036.5,60 1036.5,73.1484 1036.5,73.1484 C1036.5,73.1484 1036.5,86.2969 1031.5,86.2969 L984.5,86.2969 C979.5,86.2969 979.5,73.1484 979.5,73.1484 C979.5,73.1484 979.5,60 984.5,60 " fill="#FEFECE" filter="url(#fgy2e94lul0oq)" style="stroke: #A80036; stroke-width: 2.0;"/><path d="M1031.5,60 C1026.5,60 1026.5,73.1484 1026.5,73.1484 C1026.5,86.2969 1031.5,86.2969 1031.5,86.2969 " fill="none" style="stroke: #A80036; stroke-width: 2.0;"/><text fill="#000000" font-family="sans-serif" font-size="14" lengthAdjust="spacingAndGlyphs" textLength="37" x="984.5" y="77.9951">Kafka</text><path d="M984.5,352.3594 L1031.5,352.3594 C1036.5,352.3594 1036.5,365.5078 1036.5,365.5078 C1036.5,365.5078 1036.5,378.6563 1031.5,378.6563 L984.5,378.6563 C979.5,378.6563 979.5,365.5078 979.5,365.5078 C979.5,365.5078 979.5,352.3594 984.5,352.3594 " fill="#FEFECE" filter="url(#fgy2e94lul0oq)" style="stroke: #A80036; stroke-width: 2.0;"/><path d="M1031.5,352.3594 C1026.5,352.3594 1026.5,365.5078 1026.5,365.5078 C1026.5,378.6563 1031.5,378.6563 1031.5,378.6563 " fill="none" style="stroke: #A80036; stroke-width: 2.0;"/><text fill="#000000" font-family="sans-serif" font-size="14" lengthAdjust="spacingAndGlyphs" textLength="37" x="984.5" y="370.3545">Kafka</text><polygon fill="#A80036" points="414.5,113.4297,424.5,117.4297,414.5,121.4297,418.5,117.4297" style="stroke: #A80036; stroke-width: 1.0;"/><line style="stroke: #A80036; stroke-width: 1.0;" x1="41.5" x2="420.5" y1="117.4297" y2="117.4297"/><text fill="#000000" font-family="sans-serif" font-size="13" lengthAdjust="spacingAndGlyphs" textLength="361" x="48.5" y="112.3638">PUT /configuration/branches/{branchId}/autocallModeOn</text><polygon fill="#A80036" points="52.5,142.5625,42.5,146.5625,52.5,150.5625,48.5,146.5625" style="stroke: #A80036; stroke-width: 1.0;"/><line style="stroke: #A80036; stroke-width: 1.0; stroke-dasharray: 2.0,2.0;" x1="46.5" x2="425.5" y1="146.5625" y2="146.5625"/><text fill="#000000" font-family="sans-serif" font-size="13" lengthAdjust="spacingAndGlyphs" textLength="46" x="58.5" y="141.4966">200 OK</text><rect fill="#EEEEEE" filter="url(#fgy2e94lul0oq)" height="3" style="stroke: #EEEEEE; stroke-width: 1.0;" width="1038.5" x="3" y="175.1289"/><line style="stroke: #000000; stroke-width: 1.0;" x1="3" x2="1041.5" y1="175.1289" y2="175.1289"/><line style="stroke: #000000; stroke-width: 1.0;" x1="3" x2="1041.5" y1="178.1289" y2="178.1289"/><rect fill="#EEEEEE" filter="url(#fgy2e94lul0oq)" height="23.1328" style="stroke: #000000; stroke-width: 2.0;" width="99" x="472.75" y="164.5625"/><text fill="#000000" font-family="sans-serif" font-size="13" font-weight="bold" lengthAdjust="spacingAndGlyphs" textLength="80" x="478.75" y="180.6294">Автовызов</text><polygon fill="#A80036" points="741,214.8281,751,218.8281,741,222.8281,745,218.8281" style="stroke: #A80036; stroke-width: 1.0;"/><line style="stroke: #A80036; stroke-width: 1.0;" x1="569" x2="747" y1="218.8281" y2="218.8281"/><text fill="#000000" font-family="sans-serif" font-size="13" lengthAdjust="spacingAndGlyphs" textLength="160" x="576" y="213.7622">POST /servicepoint/.../call</text><polygon fill="#A80036" points="884,243.9609,894,247.9609,884,251.9609,888,247.9609" style="stroke: #A80036; stroke-width: 1.0;"/><line style="stroke: #A80036; stroke-width: 1.0;" x1="753" x2="890" y1="247.9609" y2="247.9609"/><text fill="#000000" font-family="sans-serif" font-size="13" lengthAdjust="spacingAndGlyphs" textLength="100" x="760" y="242.895">callNextVisit(...)</text><polygon fill="#A80036" points="996,273.0938,1006,277.0938,996,281.0938,1000,277.0938" style="stroke: #A80036; stroke-width: 1.0;"/><line style="stroke: #A80036; stroke-width: 1.0;" x1="896" x2="1002" y1="277.0938" y2="277.0938"/><text fill="#000000" font-family="sans-serif" font-size="13" lengthAdjust="spacingAndGlyphs" textLength="88" x="903" y="272.0278">VISIT_CALLED</text><polygon fill="#A80036" points="764,302.2266,754,306.2266,764,310.2266,760,306.2266" style="stroke: #A80036; stroke-width: 1.0;"/><line style="stroke: #A80036; stroke-width: 1.0; stroke-dasharray: 2.0,2.0;" x1="758" x2="895" y1="306.2266" y2="306.2266"/><text fill="#000000" font-family="sans-serif" font-size="13" lengthAdjust="spacingAndGlyphs" textLength="54" x="770" y="301.1606">Visit{id}</text><polygon fill="#A80036" points="580,331.3594,570,335.3594,580,339.3594,576,335.3594" style="stroke: #A80036; stroke-width: 1.0;"/><line style="stroke: #A80036; stroke-width: 1.0; stroke-dasharray: 2.0,2.0;" x1="574" x2="752" y1="335.3594" y2="335.3594"/><text fill="#000000" font-family="sans-serif" font-size="13" lengthAdjust="spacingAndGlyphs" textLength="70" x="586" y="330.2935">200 + Visit</text><!--MD5=[375def4792f26ca033202aa62c263eea]
@startuml
skinparam backgroundColor #FFFFFF
actor Operator
participant Config as "ConfigurationController"
participant Scheduler
participant API as "ServicePointController"
participant Visit as "VisitService"
queue Kafka

Operator -> Config: PUT /configuration/branches/{branchId}/autocallModeOn
Config - -> Operator: 200 OK

== Автовызов ==
Scheduler -> API: POST /servicepoint/.../call
API -> Visit: callNextVisit(...)
Visit -> Kafka: VISIT_CALLED
Visit - -> API: Visit{id}
API - -> Scheduler: 200 + Visit
@enduml

PlantUML version 1.2020.02(Sun Mar 01 10:22:07 UTC 2020)
(GPL source distribution)
Java Runtime: OpenJDK Runtime Environment
JVM: OpenJDK 64-Bit Server VM
Java Version: 21.0.2+13-58
Operating System: Linux
Default Encoding: UTF-8
Language: en
Country: null
--></g></svg>