<?xml version="1.0" encoding="UTF-8" standalone="no"?><svg xmlns="http://www.w3.org/2000/svg" xmlns:xlink="http://www.w3.org/1999/xlink" contentScriptType="application/ecmascript" contentStyleType="text/css" height="339px" preserveAspectRatio="none" style="width:521px;height:339px;" version="1.1" viewBox="0 0 521 339" width="521px" zoomAndPan="magnify"><defs><filter height="300%" id="f1fo5nmvzhv9iv" width="300%" x="-1" y="-1"><feGaussianBlur result="blurOut" stdDeviation="2.0"/><feColorMatrix in="blurOut" result="blurOut2" type="matrix" values="0 0 0 0 0 0 0 0 0 0 0 0 0 0 0 0 0 0 .4 0"/><feOffset dx="4.0" dy="4.0" in="blurOut2" result="blurOut3"/><feBlend in="SourceGraphic" in2="blurOut3" mode="normal"/></filter></defs><rect width="100%" height="100%" fill="#FFFFFF"/><g><line style="stroke: #A80036; stroke-width: 1.0; stroke-dasharray: 5.0,5.0;" x1="41" x2="41" y1="86.2969" y2="251.9609"/><line style="stroke: #A80036; stroke-width: 1.0; stroke-dasharray: 5.0,5.0;" x1="225.5" x2="225.5" y1="86.2969" y2="251.9609"/><line style="stroke: #A80036; stroke-width: 1.0; stroke-dasharray: 5.0,5.0;" x1="368.5" x2="368.5" y1="86.2969" y2="251.9609"/><line style="stroke: #A80036; stroke-width: 1.0; stroke-dasharray: 5.0,5.0;" x1="480" x2="480" y1="86.2969" y2="251.9609"/><text fill="#000000" font-family="sans-serif" font-size="14" lengthAdjust="spacingAndGlyphs" textLength="61" x="8" y="82.9951">Operator</text><ellipse cx="41.5" cy="13" fill="#FEFECE" filter="url(#f1fo5nmvzhv9iv)" rx="8" ry="8" style="stroke: #A80036; stroke-width: 2.0;"/><path d="M41.5,21 L41.5,48 M28.5,29 L54.5,29 M41.5,48 L28.5,63 M41.5,48 L54.5,63 " fill="none" filter="url(#f1fo5nmvzhv9iv)" style="stroke: #A80036; stroke-width: 2.0;"/><text fill="#000000" font-family="sans-serif" font-size="14" lengthAdjust="spacingAndGlyphs" textLength="61" x="8" y="263.9561">Operator</text><ellipse cx="41.5" cy="277.2578" fill="#FEFECE" filter="url(#f1fo5nmvzhv9iv)" rx="8" ry="8" style="stroke: #A80036; stroke-width: 2.0;"/><path d="M41.5,285.2578 L41.5,312.2578 M28.5,293.2578 L54.5,293.2578 M41.5,312.2578 L28.5,327.2578 M41.5,312.2578 L54.5,327.2578 " fill="none" filter="url(#f1fo5nmvzhv9iv)" style="stroke: #A80036; stroke-width: 2.0;"/><rect fill="#FEFECE" filter="url(#f1fo5nmvzhv9iv)" height="30.2969" style="stroke: #A80036; stroke-width: 1.5;" width="166" x="140.5" y="51"/><text fill="#000000" font-family="sans-serif" font-size="14" lengthAdjust="spacingAndGlyphs" textLength="152" x="147.5" y="70.9951">ServicePointController</text><rect fill="#FEFECE" filter="url(#f1fo5nmvzhv9iv)" height="30.2969" style="stroke: #A80036; stroke-width: 1.5;" width="166" x="140.5" y="250.9609"/><text fill="#000000" font-family="sans-serif" font-size="14" lengthAdjust="spacingAndGlyphs" textLength="152" x="147.5" y="270.9561">ServicePointController</text><rect fill="#FEFECE" filter="url(#f1fo5nmvzhv9iv)" height="30.2969" style="stroke: #A80036; stroke-width: 1.5;" width="92" x="320.5" y="51"/><text fill="#000000" font-family="sans-serif" font-size="14" lengthAdjust="spacingAndGlyphs" textLength="78" x="327.5" y="70.9951">VisitService</text><rect fill="#FEFECE" filter="url(#f1fo5nmvzhv9iv)" height="30.2969" style="stroke: #A80036; stroke-width: 1.5;" width="92" x="320.5" y="250.9609"/><text fill="#000000" font-family="sans-serif" font-size="14" lengthAdjust="spacingAndGlyphs" textLength="78" x="327.5" y="270.9561">VisitService</text><path d="M457,60 L504,60 C509,60 509,73.1484 509,73.1484 C509,73.1484 509,86.2969 504,86.2969 L457,86.2969 C452,86.2969 452,73.1484 452,73.1484 C452,73.1484 452,60 457,60 " fill="#FEFECE" filter="url(#f1fo5nmvzhv9iv)" style="stroke: #A80036; stroke-width: 2.0;"/><path d="M504,60 C499,60 499,73.1484 499,73.1484 C499,86.2969 504,86.2969 504,86.2969 " fill="none" style="stroke: #A80036; stroke-width: 2.0;"/><text fill="#000000" font-family="sans-serif" font-size="14" lengthAdjust="spacingAndGlyphs" textLength="37" x="457" y="77.9951">Kafka</text><path d="M457,250.9609 L504,250.9609 C509,250.9609 509,264.1094 509,264.1094 C509,264.1094 509,277.2578 504,277.2578 L457,277.2578 C452,277.2578 452,264.1094 452,264.1094 C452,264.1094 452,250.9609 457,250.9609 " fill="#FEFECE" filter="url(#f1fo5nmvzhv9iv)" style="stroke: #A80036; stroke-width: 2.0;"/><path d="M504,250.9609 C499,250.9609 499,264.1094 499,264.1094 C499,277.2578 504,277.2578 504,277.2578 " fill="none" style="stroke: #A80036; stroke-width: 2.0;"/><text fill="#000000" font-family="sans-serif" font-size="14" lengthAdjust="spacingAndGlyphs" textLength="37" x="457" y="268.9561">Kafka</text><polygon fill="#A80036" points="213.5,113.4297,223.5,117.4297,213.5,121.4297,217.5,117.4297" style="stroke: #A80036; stroke-width: 1.0;"/><line style="stroke: #A80036; stroke-width: 1.0;" x1="41.5" x2="219.5" y1="117.4297" y2="117.4297"/><text fill="#000000" font-family="sans-serif" font-size="13" lengthAdjust="spacingAndGlyphs" textLength="160" x="48.5" y="112.3638">POST /servicepoint/.../call</text><polygon fill="#A80036" points="356.5,142.5625,366.5,146.5625,356.5,150.5625,360.5,146.5625" style="stroke: #A80036; stroke-width: 1.0;"/><line style="stroke: #A80036; stroke-width: 1.0;" x1="225.5" x2="362.5" y1="146.5625" y2="146.5625"/><text fill="#000000" font-family="sans-serif" font-size="13" lengthAdjust="spacingAndGlyphs" textLength="100" x="232.5" y="141.4966">callNextVisit(...)</text><polygon fill="#A80036" points="468.5,171.6953,478.5,175.6953,468.5,179.6953,472.5,175.6953" style="stroke: #A80036; stroke-width: 1.0;"/><line style="stroke: #A80036; stroke-width: 1.0;" x1="368.5" x2="474.5" y1="175.6953" y2="175.6953"/><text fill="#000000" font-family="sans-serif" font-size="13" lengthAdjust="spacingAndGlyphs" textLength="88" x="375.5" y="170.6294">VISIT_CALLED</text><polygon fill="#A80036" points="236.5,200.8281,226.5,204.8281,236.5,208.8281,232.5,204.8281" style="stroke: #A80036; stroke-width: 1.0;"/><line style="stroke: #A80036; stroke-width: 1.0; stroke-dasharray: 2.0,2.0;" x1="230.5" x2="367.5" y1="204.8281" y2="204.8281"/><text fill="#000000" font-family="sans-serif" font-size="13" lengthAdjust="spacingAndGlyphs" textLength="54" x="242.5" y="199.7622">Visit{id}</text><polygon fill="#A80036" points="52.5,229.9609,42.5,233.9609,52.5,237.9609,48.5,233.9609" style="stroke: #A80036; stroke-width: 1.0;"/><line style="stroke: #A80036; stroke-width: 1.0; stroke-dasharray: 2.0,2.0;" x1="46.5" x2="224.5" y1="233.9609" y2="233.9609"/><text fill="#000000" font-family="sans-serif" font-size="13" lengthAdjust="spacingAndGlyphs" textLength="70" x="58.5" y="228.895">200 + Visit</text><!--MD5=[e62f4cb42c1662df3b92d86ebf1f8cb7]
@startuml
skinparam backgroundColor #FFFFFF
actor Operator
participant API as "ServicePointController"
participant Visit as "VisitService"
queue Kafka

Operator -> API: POST /servicepoint/.../call
API -> Visit: callNextVisit(...)
Visit -> Kafka: VISIT_CALLED
Visit - -> API: Visit{id}
API - -> Operator: 200 + Visit
@enduml

PlantUML version 1.2020.02(Sun Mar 01 10:22:07 UTC 2020)
(GPL source distribution)
Java Runtime: OpenJDK Runtime Environment
JVM: OpenJDK 64-Bit Server VM
Java Version: 21.0.2+13-58
Operating System: Linux
Default Encoding: UTF-8
Language: en
Country: null
--></g></svg>