<?xml version="1.0" encoding="UTF-8" standalone="no"?><svg xmlns="http://www.w3.org/2000/svg" xmlns:xlink="http://www.w3.org/1999/xlink" contentScriptType="application/ecmascript" contentStyleType="text/css" height="563px" preserveAspectRatio="none" style="width:391px;height:563px;" version="1.1" viewBox="0 0 391 563" width="391px" zoomAndPan="magnify"><defs><filter height="300%" id="f1rrz9zk1wax3" width="300%" x="-1" y="-1"><feGaussianBlur result="blurOut" stdDeviation="2.0"/><feColorMatrix in="blurOut" result="blurOut2" type="matrix" values="0 0 0 0 0 0 0 0 0 0 0 0 0 0 0 0 0 0 .4 0"/><feOffset dx="4.0" dy="4.0" in="blurOut2" result="blurOut3"/><feBlend in="SourceGraphic" in2="blurOut3" mode="normal"/></filter></defs><rect width="100%" height="100%" fill="#FFFFFF"/><g><!--MD5=[0ba5ee7700168656dc1b457c6fe9fdac]
entity Client--><ellipse cx="36.5" cy="396.5" fill="#FEFECE" filter="url(#f1rrz9zk1wax3)" rx="8" ry="8" style="stroke: #A80036; stroke-width: 1.5;"/><path d="M36.5,404.5 L36.5,431.5 M23.5,412.5 L49.5,412.5 M36.5,431.5 L23.5,446.5 M36.5,431.5 L49.5,446.5 " fill="none" filter="url(#f1rrz9zk1wax3)" style="stroke: #A80036; stroke-width: 1.5;"/><text fill="#000000" font-family="sans-serif" font-size="14" lengthAdjust="spacingAndGlyphs" textLength="39" x="17" y="464.9951">Client</text><!--MD5=[2571bb1592dc874a255a7701a0171bbf]
entity Operator--><ellipse cx="36.5" cy="101.5" fill="#FEFECE" filter="url(#f1rrz9zk1wax3)" rx="8" ry="8" style="stroke: #A80036; stroke-width: 1.5;"/><path d="M36.5,109.5 L36.5,136.5 M23.5,117.5 L49.5,117.5 M36.5,136.5 L23.5,151.5 M36.5,136.5 L49.5,151.5 " fill="none" filter="url(#f1rrz9zk1wax3)" style="stroke: #A80036; stroke-width: 1.5;"/><text fill="#000000" font-family="sans-serif" font-size="14" lengthAdjust="spacingAndGlyphs" textLength="61" x="6" y="169.9951">Operator</text><ellipse cx="254.0454" cy="323.6091" fill="#FEFECE" filter="url(#f1rrz9zk1wax3)" rx="71.0454" ry="16.6091" style="stroke: #A80036; stroke-width: 1.5;"/><text fill="#000000" font-family="sans-serif" font-size="14" lengthAdjust="spacingAndGlyphs" textLength="109" x="199.5454" y="328.2575">Создать визит</text><ellipse cx="253.7894" cy="392.2579" fill="#FEFECE" filter="url(#f1rrz9zk1wax3)" rx="74.2894" ry="17.2579" style="stroke: #A80036; stroke-width: 1.5;"/><text fill="#000000" font-family="sans-serif" font-size="14" lengthAdjust="spacingAndGlyphs" textLength="117" x="195.2894" y="396.9063">Получить талон</text><ellipse cx="253.9395" cy="462.5879" fill="#FEFECE" filter="url(#f1rrz9zk1wax3)" rx="75.9395" ry="17.5879" style="stroke: #A80036; stroke-width: 1.5;"/><text fill="#000000" font-family="sans-serif" font-size="14" lengthAdjust="spacingAndGlyphs" textLength="121" x="193.4395" y="467.2363">Отменить визит</text><ellipse cx="253.9883" cy="533.5977" fill="#FEFECE" filter="url(#f1rrz9zk1wax3)" rx="80.9883" ry="18.5977" style="stroke: #A80036; stroke-width: 1.5;"/><text fill="#000000" font-family="sans-serif" font-size="14" lengthAdjust="spacingAndGlyphs" textLength="133" x="187.4883" y="538.2461">Проверить статус</text><ellipse cx="253.9465" cy="24.6893" fill="#FEFECE" filter="url(#f1rrz9zk1wax3)" rx="71.4465" ry="16.6893" style="stroke: #A80036; stroke-width: 1.5;"/><text fill="#000000" font-family="sans-serif" font-size="14" lengthAdjust="spacingAndGlyphs" textLength="110" x="198.9465" y="29.3377">Открыть точку</text><ellipse cx="254.0454" cy="92.6091" fill="#FEFECE" filter="url(#f1rrz9zk1wax3)" rx="71.0454" ry="16.6091" style="stroke: #A80036; stroke-width: 1.5;"/><text fill="#000000" font-family="sans-serif" font-size="14" lengthAdjust="spacingAndGlyphs" textLength="109" x="199.5454" y="97.2575">Вызвать визит</text><ellipse cx="253.8908" cy="172.2782" fill="#FEFECE" filter="url(#f1rrz9zk1wax3)" rx="126.8908" ry="27.7782" style="stroke: #A80036; stroke-width: 1.5;"/><text fill="#000000" font-family="sans-serif" font-size="14" lengthAdjust="spacingAndGlyphs" textLength="234" x="136.8908" y="176.9266">Подтвердить/Завершить визит</text><ellipse cx="253.9465" cy="253.5893" fill="#FEFECE" filter="url(#f1rrz9zk1wax3)" rx="78.4465" ry="18.0893" style="stroke: #A80036; stroke-width: 1.5;"/><text fill="#000000" font-family="sans-serif" font-size="14" lengthAdjust="spacingAndGlyphs" textLength="127" x="190.4465" y="258.2377">Перевести визит</text><!--MD5=[cfcab42993e916ad068edabc4bc68301]
link Client to Создать визит--><path d="M56.2,409.18 C73.31,393.36 100.01,371 127,357.5 C147.26,347.37 170.92,339.96 192.22,334.7 " fill="none" id="Client-&gt;Создать визит" style="stroke: #A80036; stroke-width: 1.0;"/><polygon fill="#A80036" points="197.3,333.48,187.613,331.7016,192.4394,334.6523,189.4887,339.4786,197.3,333.48" style="stroke: #A80036; stroke-width: 1.0;"/><!--MD5=[4046bfdbc2f3d40e138c8f384aa2d35b]
link Client to Получить талон--><path d="M56.25,424.46 C85.14,419.76 141.93,410.54 187.1,403.2 " fill="none" id="Client-&gt;Получить талон" style="stroke: #A80036; stroke-width: 1.0;"/><polygon fill="#A80036" points="192.27,402.36,182.7454,399.8537,187.3346,403.1611,184.0272,407.7503,192.27,402.36" style="stroke: #A80036; stroke-width: 1.0;"/><!--MD5=[ffea77a57d583bedf0d0d23310f3adcd]
link Client to Отменить визит--><path d="M56.25,430.54 C84.94,435.2 141.16,444.34 186.18,451.65 " fill="none" id="Client-&gt;Отменить визит" style="stroke: #A80036; stroke-width: 1.0;"/><polygon fill="#A80036" points="191.33,452.48,183.0847,447.0934,186.3942,451.6811,181.8065,454.9907,191.33,452.48" style="stroke: #A80036; stroke-width: 1.0;"/><!--MD5=[a960a4bd50c0ecb79b43331fb6bbd6da]
link Client to Проверить статус--><path d="M56.25,445.73 C73.39,461.48 100.11,483.8 127,497.5 C145.88,507.11 167.69,514.5 187.81,520 " fill="none" id="Client-&gt;Проверить статус" style="stroke: #A80036; stroke-width: 1.0;"/><polygon fill="#A80036" points="192.88,521.36,185.2123,515.1789,188.0484,520.0735,183.1538,522.9096,192.88,521.36" style="stroke: #A80036; stroke-width: 1.0;"/><!--MD5=[e1ac09bbecd437ba4f79566f83e04223]
link Operator to Открыть точку--><path d="M67.03,102.56 C83.45,87.42 104.97,69.89 127,58.5 C146.94,48.19 170.31,40.77 191.48,35.54 " fill="none" id="Operator-&gt;Открыть точку" style="stroke: #A80036; stroke-width: 1.0;"/><polygon fill="#A80036" points="196.52,34.33,186.833,32.5516,191.6594,35.5023,188.7087,40.3286,196.52,34.33" style="stroke: #A80036; stroke-width: 1.0;"/><!--MD5=[ba48e5d3cbafc060c5814c76a7e5e979]
link Operator to Вызвать визит--><path d="M67.01,127.02 C99.25,121.04 151.75,111.29 192.76,103.68 " fill="none" id="Operator-&gt;Вызвать визит" style="stroke: #A80036; stroke-width: 1.0;"/><polygon fill="#A80036" points="197.71,102.76,188.1302,100.4737,192.7943,103.6745,189.5935,108.3387,197.71,102.76" style="stroke: #A80036; stroke-width: 1.0;"/><!--MD5=[56206dd203585d629c1fc69d2b272a25]
link Operator to Подтвердить/Завершить визит--><path d="M67.01,137.98 C89.01,142.06 120.43,147.89 151.21,153.61 " fill="none" id="Operator-&gt;Подтвердить/Завершить визит" style="stroke: #A80036; stroke-width: 1.0;"/><polygon fill="#A80036" points="156.15,154.52,148.0335,148.9413,151.2343,153.6055,146.5702,156.8063,156.15,154.52" style="stroke: #A80036; stroke-width: 1.0;"/><!--MD5=[6299077f1460c99c00102d707d6506c9]
link Operator to Перевести визит--><path d="M67.13,167.75 C83.26,184.95 104.48,204.64 127,217.5 C145.3,227.95 166.86,235.56 186.92,241 " fill="none" id="Operator-&gt;Перевести визит" style="stroke: #A80036; stroke-width: 1.0;"/><polygon fill="#A80036" points="191.99,242.34,184.3223,236.1589,187.1584,241.0535,182.2638,243.8896,191.99,242.34" style="stroke: #A80036; stroke-width: 1.0;"/><!--MD5=[154075a4a14503a9a4837822897f104c]
@startuml
skinparam backgroundColor #FFFFFF
left to right direction
actor Client
actor Operator
Client - -> (Создать визит)
Client - -> (Получить талон)
Client - -> (Отменить визит)
Client - -> (Проверить статус)
Operator - -> (Открыть точку)
Operator - -> (Вызвать визит)
Operator - -> (Подтвердить/Завершить визит)
Operator - -> (Перевести визит)
@enduml

PlantUML version 1.2020.02(Sun Mar 01 10:22:07 UTC 2020)
(GPL source distribution)
Java Runtime: OpenJDK Runtime Environment
JVM: OpenJDK 64-Bit Server VM
Java Version: 21.0.2+13-58
Operating System: Linux
Default Encoding: UTF-8
Language: en
Country: null
--></g></svg>