<svg xmlns="http://www.w3.org/2000/svg" xmlns:xlink="http://www.w3.org/1999/xlink" contentStyleType="text/css" height="1180px" preserveAspectRatio="none" style="width:2692px;height:1180px;background:#FFFFFF;" version="1.1" viewBox="0 0 2692 1180" width="2692px" zoomAndPan="magnify"><defs/><rect width="100%" height="100%" fill="#FFFFFF"/><g><text fill="#000000" font-family="sans-serif" font-size="14" font-weight="bold" lengthAdjust="spacing" textLength="376.8584" x="1151.0242" y="22.9951">&#1046;&#1080;&#1079;&#1085;&#1077;&#1085;&#1085;&#1099;&#1081; &#1094;&#1080;&#1082;&#1083; &#1074;&#1080;&#1079;&#1080;&#1090;&#1072; &#1080; &#1089;&#1074;&#1103;&#1079;&#1072;&#1085;&#1085;&#1099;&#1077; &#1089;&#1086;&#1073;&#1099;&#1090;&#1080;&#1103;</text><g id="Created"><rect fill="#F1F1F1" height="52.5938" rx="12.5" ry="12.5" style="stroke:#181818;stroke-width:0.5;" width="97.0273" x="317.5" y="209.7969"/><line style="stroke:#181818;stroke-width:0.5;" x1="317.5" x2="414.5273" y1="252.3906" y2="252.3906"/><text fill="#000000" font-family="sans-serif" font-size="14" lengthAdjust="spacing" textLength="53.1973" x="339.415" y="227.792">&#1057;&#1086;&#1079;&#1076;&#1072;&#1085;</text><text fill="#000000" font-family="sans-serif" font-size="14" lengthAdjust="spacing" textLength="77.0273" x="327.5" y="244.0889">(CREATED)</text></g><g id="WaitingQueue"><rect fill="#F1F1F1" height="52.5938" rx="12.5" ry="12.5" style="stroke:#181818;stroke-width:0.5;" width="175.4424" x="30.5" y="409.2969"/><line style="stroke:#181818;stroke-width:0.5;" x1="30.5" x2="205.9424" y1="451.8906" y2="451.8906"/><text fill="#000000" font-family="sans-serif" font-size="14" lengthAdjust="spacing" textLength="155.4424" x="40.5" y="427.292">&#1042; &#1086;&#1095;&#1077;&#1088;&#1077;&#1076;&#1080; &#1086;&#1078;&#1080;&#1076;&#1072;&#1085;&#1080;&#1103;</text><text fill="#000000" font-family="sans-serif" font-size="14" lengthAdjust="spacing" textLength="150.2813" x="43.0806" y="443.5889">(WAITING_IN_QUEUE)</text></g><g id="Called"><rect fill="#F1F1F1" height="52.5938" rx="12.5" ry="12.5" style="stroke:#181818;stroke-width:0.5;" width="85.502" x="709" y="554.2969"/><line style="stroke:#181818;stroke-width:0.5;" x1="709" x2="794.502" y1="596.8906" y2="596.8906"/><text fill="#000000" font-family="sans-serif" font-size="14" lengthAdjust="spacing" textLength="54.0859" x="724.708" y="572.292">&#1042;&#1099;&#1079;&#1074;&#1072;&#1085;</text><text fill="#000000" font-family="sans-serif" font-size="14" lengthAdjust="spacing" textLength="65.502" x="719" y="588.5889">(CALLED)</text></g><g id="Serving"><rect fill="#F1F1F1" height="52.5938" rx="12.5" ry="12.5" style="stroke:#181818;stroke-width:0.5;" width="136.0127" x="1383" y="209.7969"/><line style="stroke:#181818;stroke-width:0.5;" x1="1383" x2="1519.0127" y1="252.3906" y2="252.3906"/><text fill="#000000" font-family="sans-serif" font-size="14" lengthAdjust="spacing" textLength="116.0127" x="1393" y="227.792">&#1054;&#1073;&#1089;&#1083;&#1091;&#1078;&#1080;&#1074;&#1072;&#1077;&#1090;&#1089;&#1103;</text><text fill="#000000" font-family="sans-serif" font-size="14" lengthAdjust="spacing" textLength="73.4111" x="1414.3008" y="244.0889">(SERVING)</text></g><g id="WaitingUser"><rect fill="#F1F1F1" height="52.5938" rx="12.5" ry="12.5" style="stroke:#181818;stroke-width:0.5;" width="204.0645" x="795" y="859.2969"/><line style="stroke:#181818;stroke-width:0.5;" x1="795" x2="999.0645" y1="901.8906" y2="901.8906"/><text fill="#000000" font-family="sans-serif" font-size="14" lengthAdjust="spacing" textLength="158.7646" x="817.6499" y="877.292">&#1054;&#1078;&#1080;&#1076;&#1072;&#1077;&#1090; &#1089;&#1086;&#1090;&#1088;&#1091;&#1076;&#1085;&#1080;&#1082;&#1072;</text><text fill="#000000" font-family="sans-serif" font-size="14" lengthAdjust="spacing" textLength="184.0645" x="805" y="893.5889">(WAITING_IN_USER_POOL)</text></g><g id="WaitingService"><rect fill="#F1F1F1" height="52.5938" rx="12.5" ry="12.5" style="stroke:#181818;stroke-width:0.5;" width="245.7363" x="848" y="699.2969"/><line style="stroke:#181818;stroke-width:0.5;" x1="848" x2="1093.7363" y1="741.8906" y2="741.8906"/><text fill="#000000" font-family="sans-serif" font-size="14" lengthAdjust="spacing" textLength="225.7363" x="858" y="717.292">&#1054;&#1078;&#1080;&#1076;&#1072;&#1077;&#1090; &#1090;&#1086;&#1095;&#1082;&#1091; &#1086;&#1073;&#1089;&#1083;&#1091;&#1078;&#1080;&#1074;&#1072;&#1085;&#1080;&#1103;</text><text fill="#000000" font-family="sans-serif" font-size="14" lengthAdjust="spacing" textLength="206.1445" x="867.7959" y="733.5889">(WAITING_IN_SERVICE_POOL)</text></g><g id="End"><rect fill="#F1F1F1" height="52.5938" rx="12.5" ry="12.5" style="stroke:#181818;stroke-width:0.5;" width="93.8828" x="512" y="1004.2969"/><line style="stroke:#181818;stroke-width:0.5;" x1="512" x2="605.8828" y1="1046.8906" y2="1046.8906"/><text fill="#000000" font-family="sans-serif" font-size="14" lengthAdjust="spacing" textLength="73.8828" x="522" y="1022.292">&#1047;&#1072;&#1074;&#1077;&#1088;&#1096;&#1105;&#1085;</text><text fill="#000000" font-family="sans-serif" font-size="14" lengthAdjust="spacing" textLength="41.0225" x="538.4302" y="1038.5889">(END)</text></g><ellipse cx="366" cy="53.2969" fill="#222222" rx="10" ry="10" style="stroke:#222222;stroke-width:1.0;"/><g id="elem_GMN33"><path d="M1553.5,140.2969 L1553.5,232.2969 L1519.03,236.2969 L1553.5,240.2969 L1553.5,331.8906 A0,0 0 0 0 1553.5,331.8906 L2158.811,331.8906 A0,0 0 0 0 2158.811,331.8906 L2158.811,150.2969 L2148.811,140.2969 L1553.5,140.2969 A0,0 0 0 0 1553.5,140.2969 " fill="#FEFFDD" style="stroke:#181818;stroke-width:0.5;"/><path d="M2148.811,140.2969 L2148.811,150.2969 L2158.811,150.2969 L2148.811,140.2969 " fill="#FEFFDD" style="stroke:#181818;stroke-width:0.5;"/><text fill="#000000" font-family="sans-serif" font-size="13" lengthAdjust="spacing" textLength="212.9385" x="1559.5" y="157.3638">&#1057;&#1086;&#1073;&#1099;&#1090;&#1080;&#1103; &#1073;&#1077;&#1079; &#1089;&#1084;&#1077;&#1085;&#1099; &#1089;&#1086;&#1089;&#1090;&#1086;&#1103;&#1085;&#1080;&#1103;:</text><ellipse cx="1565" cy="168.0625" fill="#000000" rx="2.5" ry="2.5" style="stroke:#000000;stroke-width:0.0;"/><text fill="#000000" font-family="sans-serif" font-size="13" lengthAdjust="spacing" textLength="238.4688" x="1571.5" y="172.4966">&#1044;&#1086;&#1073;&#1072;&#1074;&#1083;&#1077;&#1085;&#1080;&#1077; &#1091;&#1089;&#1083;&#1091;&#1075;&#1080; (ADD_SERVICE)</text><ellipse cx="1565" cy="183.1953" fill="#000000" rx="2.5" ry="2.5" style="stroke:#000000;stroke-width:0.0;"/><text fill="#000000" font-family="sans-serif" font-size="13" lengthAdjust="spacing" textLength="433.5767" x="1571.5" y="187.6294">&#1044;&#1086;&#1073;&#1072;&#1074;&#1083;&#1077;&#1085;&#1080;&#1077; &#1074;&#1099;&#1087;&#1086;&#1083;&#1085;&#1077;&#1085;&#1085;&#1086;&#1081; &#1091;&#1089;&#1083;&#1091;&#1075;&#1080; (ADDED_DELIVERED_SERVICE)</text><ellipse cx="1565" cy="198.3281" fill="#000000" rx="2.5" ry="2.5" style="stroke:#000000;stroke-width:0.0;"/><text fill="#000000" font-family="sans-serif" font-size="13" lengthAdjust="spacing" textLength="572.311" x="1571.5" y="202.7622">&#1044;&#1086;&#1073;&#1072;&#1074;&#1083;&#1077;&#1085;&#1080;&#1077; &#1088;&#1077;&#1079;&#1091;&#1083;&#1100;&#1090;&#1072;&#1090;&#1072; &#1074;&#1099;&#1087;&#1086;&#1083;&#1085;&#1077;&#1085;&#1085;&#1086;&#1081; &#1091;&#1089;&#1083;&#1091;&#1075;&#1080; (ADDED_DELIVERED_SERVICE_RESULT)</text><ellipse cx="1565" cy="213.4609" fill="#000000" rx="2.5" ry="2.5" style="stroke:#000000;stroke-width:0.0;"/><text fill="#000000" font-family="sans-serif" font-size="13" lengthAdjust="spacing" textLength="395.4272" x="1571.5" y="217.895">&#1044;&#1086;&#1073;&#1072;&#1074;&#1083;&#1077;&#1085;&#1080;&#1077; &#1088;&#1077;&#1079;&#1091;&#1083;&#1100;&#1090;&#1072;&#1090;&#1072; &#1091;&#1089;&#1083;&#1091;&#1075;&#1080; (ADDED_SERVICE_RESULT)</text><ellipse cx="1565" cy="228.5938" fill="#000000" rx="2.5" ry="2.5" style="stroke:#000000;stroke-width:0.0;"/><text fill="#000000" font-family="sans-serif" font-size="13" lengthAdjust="spacing" textLength="249.9263" x="1571.5" y="233.0278">&#1044;&#1086;&#1073;&#1072;&#1074;&#1083;&#1077;&#1085;&#1080;&#1077; &#1086;&#1090;&#1084;&#1077;&#1090;&#1082;&#1080; (ADDED_MARK)</text><ellipse cx="1565" cy="243.7266" fill="#000000" rx="2.5" ry="2.5" style="stroke:#000000;stroke-width:0.0;"/><text fill="#000000" font-family="sans-serif" font-size="13" lengthAdjust="spacing" textLength="247.7236" x="1571.5" y="248.1606">&#1044;&#1086;&#1073;&#1072;&#1074;&#1083;&#1077;&#1085;&#1080;&#1077; &#1079;&#1072;&#1084;&#1077;&#1090;&#1082;&#1080; (ADDED_NOTE)</text><ellipse cx="1565" cy="258.8594" fill="#000000" rx="2.5" ry="2.5" style="stroke:#000000;stroke-width:0.0;"/><text fill="#000000" font-family="sans-serif" font-size="13" lengthAdjust="spacing" textLength="245.7559" x="1571.5" y="263.2935">&#1059;&#1076;&#1072;&#1083;&#1077;&#1085;&#1080;&#1077; &#1086;&#1090;&#1084;&#1077;&#1090;&#1082;&#1080; (DELETED_MARK)</text><ellipse cx="1565" cy="273.9922" fill="#000000" rx="2.5" ry="2.5" style="stroke:#000000;stroke-width:0.0;"/><text fill="#000000" font-family="sans-serif" font-size="13" lengthAdjust="spacing" textLength="429.4063" x="1571.5" y="278.4263">&#1059;&#1076;&#1072;&#1083;&#1077;&#1085;&#1080;&#1077; &#1074;&#1099;&#1087;&#1086;&#1083;&#1085;&#1077;&#1085;&#1085;&#1086;&#1081; &#1091;&#1089;&#1083;&#1091;&#1075;&#1080; (DELETED_DELIVERED_SERVICE)</text><ellipse cx="1565" cy="289.125" fill="#000000" rx="2.5" ry="2.5" style="stroke:#000000;stroke-width:0.0;"/><text fill="#000000" font-family="sans-serif" font-size="13" lengthAdjust="spacing" textLength="568.1406" x="1571.5" y="293.5591">&#1059;&#1076;&#1072;&#1083;&#1077;&#1085;&#1080;&#1077; &#1088;&#1077;&#1079;&#1091;&#1083;&#1100;&#1090;&#1072;&#1090;&#1072; &#1074;&#1099;&#1087;&#1086;&#1083;&#1085;&#1077;&#1085;&#1085;&#1086;&#1081; &#1091;&#1089;&#1083;&#1091;&#1075;&#1080; (DELETED_DELIVERED_SERVICE_RESULT)</text><ellipse cx="1565" cy="304.2578" fill="#000000" rx="2.5" ry="2.5" style="stroke:#000000;stroke-width:0.0;"/><text fill="#000000" font-family="sans-serif" font-size="13" lengthAdjust="spacing" textLength="391.2568" x="1571.5" y="308.6919">&#1059;&#1076;&#1072;&#1083;&#1077;&#1085;&#1080;&#1077; &#1088;&#1077;&#1079;&#1091;&#1083;&#1100;&#1090;&#1072;&#1090;&#1072; &#1091;&#1089;&#1083;&#1091;&#1075;&#1080; (DELETED_SERVICE_RESULT)</text><ellipse cx="1565" cy="319.3906" fill="#000000" rx="2.5" ry="2.5" style="stroke:#000000;stroke-width:0.0;"/><text fill="#000000" font-family="sans-serif" font-size="13" lengthAdjust="spacing" textLength="289.7261" x="1571.5" y="323.8247">&#1054;&#1089;&#1090;&#1072;&#1085;&#1086;&#1074;&#1082;&#1072; &#1086;&#1073;&#1089;&#1083;&#1091;&#1078;&#1080;&#1074;&#1072;&#1085;&#1080;&#1103; (STOP_SERVING)</text></g><g id="elem_GMN36"><path d="M160,1118.2969 L160,1173.6953 A0,0 0 0 0 160,1173.6953 L661.7715,1173.6953 A0,0 0 0 0 661.7715,1173.6953 L661.7715,1128.2969 L651.7715,1118.2969 L449.74,1118.2969 L525.42,1057.4369 L441.74,1118.2969 L160,1118.2969 A0,0 0 0 0 160,1118.2969 " fill="#FEFFDD" style="stroke:#181818;stroke-width:0.5;"/><path d="M651.7715,1118.2969 L651.7715,1128.2969 L661.7715,1128.2969 L651.7715,1118.2969 " fill="#FEFFDD" style="stroke:#181818;stroke-width:0.5;"/><text fill="#000000" font-family="sans-serif" font-size="13" lengthAdjust="spacing" textLength="480.7715" x="166" y="1135.3638">&#1058;&#1072;&#1082;&#1078;&#1077; &#1092;&#1080;&#1082;&#1089;&#1080;&#1088;&#1091;&#1102;&#1090;&#1089;&#1103; &#1089;&#1080;&#1089;&#1090;&#1077;&#1084;&#1085;&#1099;&#1077; &#1089;&#1086;&#1073;&#1099;&#1090;&#1080;&#1103; &#1092;&#1080;&#1082;&#1089;&#1072;&#1094;&#1080;&#1080; &#1086;&#1082;&#1086;&#1085;&#1095;&#1072;&#1085;&#1080;&#1103; &#1074;&#1080;&#1079;&#1080;&#1090;&#1072;</text><text fill="#000000" font-family="sans-serif" font-size="13" lengthAdjust="spacing" textLength="390.5078" x="166" y="1150.4966">(VISIT_END_TRANSACTION) &#1080; &#1087;&#1077;&#1088;&#1077;&#1085;&#1086;&#1089;&#1072; &#1074;&#1080;&#1079;&#1080;&#1090;&#1072; &#1080;&#1079; &#1086;&#1095;&#1077;&#1088;&#1077;&#1076;&#1080;</text><text fill="#000000" font-family="sans-serif" font-size="13" lengthAdjust="spacing" textLength="450.0107" x="166" y="1165.6294">(VISIT_TRANSFER_FROM_QUEUE) &#1073;&#1077;&#1079; &#1080;&#1079;&#1084;&#1077;&#1085;&#1077;&#1085;&#1080;&#1103; &#1089;&#1086;&#1089;&#1090;&#1086;&#1103;&#1085;&#1080;&#1103; &#1074;&#1080;&#1079;&#1080;&#1090;&#1072;.</text></g><ellipse cx="708" cy="1145.7969" fill="none" rx="11" ry="11" style="stroke:#222222;stroke-width:1.0;"/><ellipse cx="708" cy="1145.7969" fill="#222222" rx="6" ry="6" style="stroke:#222222;stroke-width:1.0;"/><!--link *start* to Created--><g id="link_*start*_Created"><path d="M366,63.5169 C366,90.2469 366,162.4369 366,203.4669 " fill="none" id="*start*-to-Created" style="stroke:#181818;stroke-width:1.0;"/><polygon fill="#181818" points="366,209.4669,370,200.4669,366,204.4669,362,200.4669,366,209.4669" style="stroke:#181818;stroke-width:1.0;"/><text fill="#000000" font-family="sans-serif" font-size="13" lengthAdjust="spacing" textLength="192.645" x="367" y="106.3638">&#1057;&#1086;&#1079;&#1076;&#1072;&#1085;&#1080;&#1077; &#1074;&#1080;&#1079;&#1080;&#1090;&#1072; (CREATED)</text></g><!--link Created to WaitingQueue--><g id="link_Created_WaitingQueue"><path d="M317.39,239.5869 C242.83,246.0369 102.23,270.4269 39,362.2969 C26.81,380.0069 36.6403,393.272 56.6603,406.032 " fill="none" id="Created-to-WaitingQueue" style="stroke:#181818;stroke-width:1.0;"/><polygon fill="#181818" points="61.72,409.2569,56.2804,401.0465,57.5036,406.5695,51.9806,407.7927,61.72,409.2569" style="stroke:#181818;stroke-width:1.0;"/><text fill="#000000" font-family="sans-serif" font-size="13" lengthAdjust="spacing" textLength="290.6084" x="40" y="375.3638">&#1055;&#1086;&#1089;&#1090;&#1072;&#1085;&#1086;&#1074;&#1082;&#1072; &#1074; &#1086;&#1095;&#1077;&#1088;&#1077;&#1076;&#1100; (PLACED_IN_QUEUE)</text></g><!--link Created to Called--><g id="link_Created_Called"><path d="M414.55,246.3069 C479.38,260.5869 594.43,294.0969 667,362.2969 C703.06,396.1969 694.04,417.9369 716,462.2969 C722.61,475.6569 725.89,478.2869 731,492.2969 C738.38,512.5469 742.7384,530.5124 746.2584,548.1924 " fill="none" id="Created-to-Called" style="stroke:#181818;stroke-width:1.0;"/><polygon fill="#181818" points="747.43,554.0769,749.5956,544.4691,746.4537,549.1731,741.7496,546.0312,747.43,554.0769" style="stroke:#181818;stroke-width:1.0;"/><text fill="#000000" font-family="sans-serif" font-size="13" lengthAdjust="spacing" textLength="106.666" x="769.5078" y="432.8638">&#1042;&#1099;&#1079;&#1086;&#1074; (CALLED)</text><text fill="#000000" font-family="sans-serif" font-size="13" lengthAdjust="spacing" textLength="211.6816" x="717" y="447.9966">/ &#1055;&#1086;&#1074;&#1090;&#1086;&#1088;&#1085;&#1099;&#1081; &#1074;&#1099;&#1079;&#1086;&#1074; (RECALLED)</text></g><!--link WaitingQueue to Called--><g id="link_WaitingQueue_Called"><path d="M205.89,444.5969 C296.53,453.6469 431.08,470.2169 478,492.2969 C497.37,501.4069 494.75,514.9369 514,524.2969 C581.42,557.0869 607.54,535.0569 680,554.2969 C689.48,556.8169 693.8299,558.0448 703.2799,561.3148 " fill="none" id="WaitingQueue-to-Called" style="stroke:#181818;stroke-width:1.0;"/><polygon fill="#181818" points="708.95,563.2769,701.7528,556.5537,704.2249,561.6418,699.1368,564.1139,708.95,563.2769" style="stroke:#181818;stroke-width:1.0;"/><text fill="#000000" font-family="sans-serif" font-size="13" lengthAdjust="spacing" textLength="106.666" x="567.5078" y="505.3638">&#1042;&#1099;&#1079;&#1086;&#1074; (CALLED)</text><text fill="#000000" font-family="sans-serif" font-size="13" lengthAdjust="spacing" textLength="211.6816" x="515" y="520.4966">/ &#1055;&#1086;&#1074;&#1090;&#1086;&#1088;&#1085;&#1099;&#1081; &#1074;&#1099;&#1079;&#1086;&#1074; (RECALLED)</text></g><!--link Called to WaitingQueue--><g id="link_Called_WaitingQueue"><path d="M708.77,562.2769 C699.42,559.1169 689.49,556.2169 680,554.2969 C568.51,531.7569 265.92,583.8369 169,524.2969 C146.68,510.5869 135.1158,488.8337 127.6358,468.3237 " fill="none" id="Called-to-WaitingQueue" style="stroke:#181818;stroke-width:1.0;"/><polygon fill="#181818" points="125.58,462.6869,124.9057,472.5126,127.2931,467.3842,132.4215,469.7716,125.58,462.6869" style="stroke:#181818;stroke-width:1.0;"/><text fill="#000000" font-family="sans-serif" font-size="13" lengthAdjust="spacing" textLength="254.249" x="192.5278" y="505.3638">&#1042;&#1086;&#1079;&#1074;&#1088;&#1072;&#1090; &#1074; &#1086;&#1095;&#1077;&#1088;&#1077;&#1076;&#1100; (BACK_TO_QUEUE)</text><text fill="#000000" font-family="sans-serif" font-size="13" lengthAdjust="spacing" textLength="299.3047" x="170" y="520.4966">/ &#1055;&#1077;&#1088;&#1077;&#1074;&#1086;&#1076; &#1074; &#1086;&#1095;&#1077;&#1088;&#1077;&#1076;&#1100; (TRANSFER_TO_QUEUE)</text></g><!--link WaitingQueue to WaitingUser--><g id="link_WaitingQueue_WaitingUser"><path d="M100.67,462.3469 C71.48,508.8769 20.29,608.2569 70,669.2969 C111.55,720.3269 151.17,683.2969 215,699.2969 C341.31,730.9569 374.37,735.7869 496,782.2969 C541.49,799.6969 548.49,814.8469 595,829.2969 C675.39,854.2669 699.32,843.5169 782,859.2969 C786.22,860.1069 784.637,859.7676 788.977,860.6376 " fill="none" id="WaitingQueue-to-WaitingUser" style="stroke:#181818;stroke-width:1.0;"/><polygon fill="#181818" points="794.86,861.8169,786.8218,856.1259,789.9575,860.8341,785.2494,863.9699,794.86,861.8169" style="stroke:#181818;stroke-width:1.0;"/><text fill="#000000" font-family="sans-serif" font-size="13" lengthAdjust="spacing" textLength="382.2876" x="71" y="657.8638">&#1055;&#1077;&#1088;&#1077;&#1074;&#1086;&#1076; &#1074; &#1087;&#1091;&#1083; &#1089;&#1086;&#1090;&#1088;&#1091;&#1076;&#1085;&#1080;&#1082;&#1086;&#1074; (TRANSFER_TO_USER_POOL)</text></g><!--link WaitingQueue to WaitingService--><g id="link_WaitingQueue_WaitingService"><path d="M119.69,462.3269 C123.82,501.4469 138.05,575.0769 187,607.2969 C238.35,641.0969 401.09,628.9769 462,637.2969 C630.24,660.2869 671.84,669.4169 839,699.2969 C841.87,699.8069 838.8758,699.2689 841.8058,699.7989 " fill="none" id="WaitingQueue-to-WaitingService" style="stroke:#181818;stroke-width:1.0;"/><polygon fill="#181818" points="847.71,700.8669,839.5657,695.3288,842.7898,699.9769,838.1417,703.201,847.71,700.8669" style="stroke:#181818;stroke-width:1.0;"/><text fill="#000000" font-family="sans-serif" font-size="13" lengthAdjust="spacing" textLength="503.7056" x="188" y="585.3638">&#1055;&#1077;&#1088;&#1077;&#1074;&#1086;&#1076; &#1074; &#1087;&#1091;&#1083; &#1090;&#1086;&#1095;&#1077;&#1082; &#1086;&#1073;&#1089;&#1083;&#1091;&#1078;&#1080;&#1074;&#1072;&#1085;&#1080;&#1103; (TRANSFER_TO_SERVICE_POINT_POOL)</text></g><!--link WaitingQueue to End--><g id="link_WaitingQueue_End"><path d="M80.39,462.4469 C47.86,487.9869 6,530.4469 6,579.7969 C6,579.7969 6,579.7969 6,886.7969 C6,990.9169 372.1288,1020.1225 505.8588,1027.3625 " fill="none" id="WaitingQueue-to-End" style="stroke:#181818;stroke-width:1.0;"/><polygon fill="#181818" points="511.85,1027.6869,503.0794,1023.2062,506.8573,1027.4166,502.6469,1031.1945,511.85,1027.6869" style="stroke:#181818;stroke-width:1.0;"/><text fill="#000000" font-family="sans-serif" font-size="13" lengthAdjust="spacing" textLength="130.9204" x="41.4932" y="715.3638">&#1053;&#1077;&#1103;&#1074;&#1082;&#1072; (NO_SHOW)</text><text fill="#000000" font-family="sans-serif" font-size="13" lengthAdjust="spacing" textLength="186.9321" x="13.4873" y="730.4966">/ &#1047;&#1072;&#1074;&#1077;&#1088;&#1096;&#1077;&#1085;&#1080;&#1077; &#1074;&#1080;&#1079;&#1080;&#1090;&#1072; (END)</text><text fill="#000000" font-family="sans-serif" font-size="13" lengthAdjust="spacing" textLength="199.9067" x="7" y="745.6294">/ &#1059;&#1076;&#1072;&#1083;&#1077;&#1085;&#1080;&#1077; &#1074;&#1080;&#1079;&#1080;&#1090;&#1072; (DELETED)</text></g><!--link Called to Serving--><g id="link_Called_Serving"><path d="M794.13,554.1269 C831.34,531.0669 886.71,495.7769 933,462.2969 C963.48,440.2469 966.35,427.9969 999,409.2969 C1126.87,336.0669 1286.0889,284.0832 1377.1989,257.5732 " fill="none" id="Called-to-Serving" style="stroke:#181818;stroke-width:1.0;"/><polygon fill="#181818" points="1382.96,255.8969,1373.2009,254.5706,1378.1591,257.2938,1375.4359,262.252,1382.96,255.8969" style="stroke:#181818;stroke-width:1.0;"/><text fill="#000000" font-family="sans-serif" font-size="13" lengthAdjust="spacing" textLength="274.3203" x="1000" y="440.3638">&#1053;&#1072;&#1095;&#1072;&#1083;&#1086; &#1086;&#1073;&#1089;&#1083;&#1091;&#1078;&#1080;&#1074;&#1072;&#1085;&#1080;&#1103; (START_SERVING)</text></g><!--link Serving to Called--><g id="link_Serving_Called"><path d="M1439.04,262.9169 C1415.52,310.3169 1358.54,411.4569 1279,462.2969 C1121.63,562.8869 895.9789,577.9638 801.0089,579.7538 " fill="none" id="Serving-to-Called" style="stroke:#181818;stroke-width:1.0;"/><polygon fill="#181818" points="795.01,579.8669,804.0838,583.6966,800.0091,579.7727,803.933,575.698,795.01,579.8669" style="stroke:#181818;stroke-width:1.0;"/><text fill="#000000" font-family="sans-serif" font-size="13" lengthAdjust="spacing" textLength="106.666" x="1393.5078" y="432.8638">&#1042;&#1099;&#1079;&#1086;&#1074; (CALLED)</text><text fill="#000000" font-family="sans-serif" font-size="13" lengthAdjust="spacing" textLength="211.6816" x="1341" y="447.9966">/ &#1055;&#1086;&#1074;&#1090;&#1086;&#1088;&#1085;&#1099;&#1081; &#1074;&#1099;&#1079;&#1086;&#1074; (RECALLED)</text></g><!--link Called to WaitingUser--><g id="link_Called_WaitingUser"><path d="M795.13,582.8469 C941.9,586.7269 1416.07,601.8969 1474,637.2969 C1538.52,676.7269 1542.45,709.5269 1563,782.2969 C1568.68,802.3969 1577.14,813.9269 1563,829.2969 C1525.66,869.8769 1182.4392,880.6977 1005.1892,883.6277 " fill="none" id="Called-to-WaitingUser" style="stroke:#181818;stroke-width:1.0;"/><polygon fill="#181818" points="999.19,883.7269,1008.2549,887.5776,1004.1893,883.6442,1008.1227,879.5787,999.19,883.7269" style="stroke:#181818;stroke-width:1.0;"/><text fill="#000000" font-family="sans-serif" font-size="13" lengthAdjust="spacing" textLength="382.2876" x="1555" y="722.8638">&#1055;&#1077;&#1088;&#1077;&#1074;&#1086;&#1076; &#1074; &#1087;&#1091;&#1083; &#1089;&#1086;&#1090;&#1088;&#1091;&#1076;&#1085;&#1080;&#1082;&#1086;&#1074; (TRANSFER_TO_USER_POOL)</text><text fill="#000000" font-family="sans-serif" font-size="13" lengthAdjust="spacing" textLength="354.2563" x="1569.0156" y="737.9966">/ &#1042;&#1086;&#1079;&#1074;&#1088;&#1072;&#1090; &#1074; &#1087;&#1091;&#1083; &#1089;&#1086;&#1090;&#1088;&#1091;&#1076;&#1085;&#1080;&#1082;&#1086;&#1074; (BACK_TO_USER_POOL)</text></g><!--link WaitingUser to Called--><g id="link_WaitingUser_Called"><path d="M794.7,864.6269 C721.74,850.0269 636,832.3469 633,829.2969 C592.18,787.8669 593.99,752.2769 618,699.2969 C636.52,658.4369 671.9991,629.4055 703.6591,609.1055 " fill="none" id="WaitingUser-to-Called" style="stroke:#181818;stroke-width:1.0;"/><polygon fill="#181818" points="708.71,605.8669,698.9746,607.3575,704.5009,608.5657,703.2927,614.092,708.71,605.8669" style="stroke:#181818;stroke-width:1.0;"/><text fill="#000000" font-family="sans-serif" font-size="13" lengthAdjust="spacing" textLength="106.666" x="671.5078" y="722.8638">&#1042;&#1099;&#1079;&#1086;&#1074; (CALLED)</text><text fill="#000000" font-family="sans-serif" font-size="13" lengthAdjust="spacing" textLength="211.6816" x="619" y="737.9966">/ &#1055;&#1086;&#1074;&#1090;&#1086;&#1088;&#1085;&#1099;&#1081; &#1074;&#1099;&#1079;&#1086;&#1074; (RECALLED)</text></g><!--link Called to WaitingService--><g id="link_Called_WaitingService"><path d="M795.02,583.2169 C837.7,586.9069 902.31,598.9969 942,637.2969 C958.82,653.5169 964.9766,673.7653 967.9466,693.2653 " fill="none" id="Called-to-WaitingService" style="stroke:#181818;stroke-width:1.0;"/><polygon fill="#181818" points="968.85,699.1969,971.4493,689.6972,968.0971,694.2539,963.5405,690.9018,968.85,699.1969" style="stroke:#181818;stroke-width:1.0;"/><text fill="#000000" font-family="sans-serif" font-size="13" lengthAdjust="spacing" textLength="503.7056" x="962" y="650.3638">&#1055;&#1077;&#1088;&#1077;&#1074;&#1086;&#1076; &#1074; &#1087;&#1091;&#1083; &#1090;&#1086;&#1095;&#1077;&#1082; &#1086;&#1073;&#1089;&#1083;&#1091;&#1078;&#1080;&#1074;&#1072;&#1085;&#1080;&#1103; (TRANSFER_TO_SERVICE_POINT_POOL)</text><text fill="#000000" font-family="sans-serif" font-size="13" lengthAdjust="spacing" textLength="475.6743" x="976.0156" y="665.4966">/ &#1042;&#1086;&#1079;&#1074;&#1088;&#1072;&#1090; &#1074; &#1087;&#1091;&#1083; &#1090;&#1086;&#1095;&#1077;&#1082; &#1086;&#1073;&#1089;&#1083;&#1091;&#1078;&#1080;&#1074;&#1072;&#1085;&#1080;&#1103; (BACK_TO_SERVICE_POINT_POOL)</text></g><!--link WaitingService to Called--><g id="link_WaitingService_Called"><path d="M847.73,704.4569 C789.03,693.5169 729.66,680.0869 721,669.2969 C706.58,651.3169 714.5487,631.0765 727.3887,612.3365 " fill="none" id="WaitingService-to-Called" style="stroke:#181818;stroke-width:1.0;"/><polygon fill="#181818" points="730.78,607.3869,722.3933,612.5505,727.9539,611.5116,728.9928,617.0722,730.78,607.3869" style="stroke:#181818;stroke-width:1.0;"/><text fill="#000000" font-family="sans-serif" font-size="13" lengthAdjust="spacing" textLength="106.666" x="774.5078" y="650.3638">&#1042;&#1099;&#1079;&#1086;&#1074; (CALLED)</text><text fill="#000000" font-family="sans-serif" font-size="13" lengthAdjust="spacing" textLength="211.6816" x="722" y="665.4966">/ &#1055;&#1086;&#1074;&#1090;&#1086;&#1088;&#1085;&#1099;&#1081; &#1074;&#1099;&#1079;&#1086;&#1074; (RECALLED)</text></g><!--link Called to End--><g id="link_Called_End"><path d="M708.96,603.1369 C705.94,604.5669 702.93,605.9569 700,607.2969 C668.83,621.5069 659.64,621.9769 629,637.2969 C514.45,694.5569 443.82,671.2669 380,782.2969 C330.58,868.2669 443.8324,957.4477 511.1924,1001.0277 " fill="none" id="Called-to-End" style="stroke:#181818;stroke-width:1.0;"/><polygon fill="#181818" points="516.23,1004.2869,510.8464,996.0397,512.032,1001.5709,506.5008,1002.7565,516.23,1004.2869" style="stroke:#181818;stroke-width:1.0;"/><text fill="#000000" font-family="sans-serif" font-size="13" lengthAdjust="spacing" textLength="130.9204" x="415.4932" y="795.3638">&#1053;&#1077;&#1103;&#1074;&#1082;&#1072; (NO_SHOW)</text><text fill="#000000" font-family="sans-serif" font-size="13" lengthAdjust="spacing" textLength="186.9321" x="387.4873" y="810.4966">/ &#1047;&#1072;&#1074;&#1077;&#1088;&#1096;&#1077;&#1085;&#1080;&#1077; &#1074;&#1080;&#1079;&#1080;&#1090;&#1072; (END)</text><text fill="#000000" font-family="sans-serif" font-size="13" lengthAdjust="spacing" textLength="199.9067" x="381" y="825.6294">/ &#1059;&#1076;&#1072;&#1083;&#1077;&#1085;&#1080;&#1077; &#1074;&#1080;&#1079;&#1080;&#1090;&#1072; (DELETED)</text></g><!--link Serving to WaitingQueue--><g id="link_Serving_WaitingQueue"><path d="M1382.6,247.4269 C1159.63,280.4669 459.8252,384.1475 211.4452,420.9475 " fill="none" id="Serving-to-WaitingQueue" style="stroke:#181818;stroke-width:1.0;"/><polygon fill="#181818" points="205.51,421.8269,214.9991,424.4646,210.456,421.0941,213.8266,416.551,205.51,421.8269" style="stroke:#181818;stroke-width:1.0;"/><text fill="#000000" font-family="sans-serif" font-size="13" lengthAdjust="spacing" textLength="290.7925" x="588" y="375.3638">&#1055;&#1077;&#1088;&#1077;&#1074;&#1086;&#1076; &#1074; &#1086;&#1095;&#1077;&#1088;&#1077;&#1076;&#1100; (TRANSFER_TO_QUEUE)</text></g><!--link Serving to WaitingUser--><g id="link_Serving_WaitingUser"><path d="M1466.93,262.8969 C1481.99,284.8369 1506.61,315.4869 1536,332.2969 C1636.54,389.7869 2047,318.9769 2047,434.7969 C2047,434.7969 2047,434.7969 2047,726.7969 C2047,832.0969 1286.4957,870.5398 1005.0457,881.1998 " fill="none" id="Serving-to-WaitingUser" style="stroke:#181818;stroke-width:1.0;"/><polygon fill="#181818" points="999.05,881.4269,1008.1949,885.0834,1004.0464,881.2376,1007.8922,877.0891,999.05,881.4269" style="stroke:#181818;stroke-width:1.0;"/><text fill="#000000" font-family="sans-serif" font-size="13" lengthAdjust="spacing" textLength="382.2876" x="2048" y="585.3638">&#1055;&#1077;&#1088;&#1077;&#1074;&#1086;&#1076; &#1074; &#1087;&#1091;&#1083; &#1089;&#1086;&#1090;&#1088;&#1091;&#1076;&#1085;&#1080;&#1082;&#1086;&#1074; (TRANSFER_TO_USER_POOL)</text></g><!--link Serving to WaitingService--><g id="link_Serving_WaitingService"><path d="M1474.18,262.9069 C1501.13,294.5869 1544.09,351.4569 1561,409.2969 C1567.61,431.9069 1572.11,441.5269 1561,462.2969 C1549.66,483.4869 1529.73,472.5669 1516,492.2969 C1469.82,558.6669 1534.58,615.7469 1474,669.2969 C1446.06,693.9869 1240.0097,709.9849 1100.2897,718.1949 " fill="none" id="Serving-to-WaitingService" style="stroke:#181818;stroke-width:1.0;"/><polygon fill="#181818" points="1094.3,718.5469,1103.5191,722.0121,1099.2914,718.2536,1103.0499,714.0258,1094.3,718.5469" style="stroke:#181818;stroke-width:1.0;"/><text fill="#000000" font-family="sans-serif" font-size="13" lengthAdjust="spacing" textLength="503.7056" x="1517" y="512.8638">&#1055;&#1077;&#1088;&#1077;&#1074;&#1086;&#1076; &#1074; &#1087;&#1091;&#1083; &#1090;&#1086;&#1095;&#1077;&#1082; &#1086;&#1073;&#1089;&#1083;&#1091;&#1078;&#1080;&#1074;&#1072;&#1085;&#1080;&#1103; (TRANSFER_TO_SERVICE_POINT_POOL)</text></g><!--link Serving to End--><g id="link_Serving_End"><path d="M1465.88,262.9169 C1480.55,285.5169 1505.22,317.1469 1536,332.2969 C1726.12,425.8569 2484,222.9069 2484,434.7969 C2484,434.7969 2484,434.7969 2484,886.7969 C2484,984.0369 907.3086,1022.3782 612.1086,1028.7082 " fill="none" id="Serving-to-End" style="stroke:#181818;stroke-width:1.0;"/><polygon fill="#181818" points="606.11,1028.8369,615.1937,1032.643,611.1089,1028.7297,615.0222,1024.6449,606.11,1028.8369" style="stroke:#181818;stroke-width:1.0;"/><text fill="#000000" font-family="sans-serif" font-size="13" lengthAdjust="spacing" textLength="178.4199" x="2495.7434" y="650.3638">&#1047;&#1072;&#1074;&#1077;&#1088;&#1096;&#1077;&#1085;&#1080;&#1077; &#1074;&#1080;&#1079;&#1080;&#1090;&#1072; (END)</text><text fill="#000000" font-family="sans-serif" font-size="13" lengthAdjust="spacing" textLength="199.9067" x="2485" y="665.4966">/ &#1059;&#1076;&#1072;&#1083;&#1077;&#1085;&#1080;&#1077; &#1074;&#1080;&#1079;&#1080;&#1090;&#1072; (DELETED)</text></g><!--link WaitingUser to WaitingService--><g id="link_WaitingUser_WaitingService"><path d="M999.15,864.2269 C1016.42,856.1569 1032.22,844.9269 1043,829.2969 C1054.86,812.0969 1052.22,801.0369 1043,782.2969 C1037.22,770.5369 1032.3433,764.2769 1022.0033,756.1769 " fill="none" id="WaitingUser-to-WaitingService" style="stroke:#181818;stroke-width:1.0;"/><polygon fill="#181818" points="1017.28,752.4769,1021.8982,761.1758,1021.2161,755.5603,1026.8317,754.8781,1017.28,752.4769" style="stroke:#181818;stroke-width:1.0;"/><text fill="#000000" font-family="sans-serif" font-size="13" lengthAdjust="spacing" textLength="503.7056" x="1051" y="802.8638">&#1055;&#1077;&#1088;&#1077;&#1074;&#1086;&#1076; &#1074; &#1087;&#1091;&#1083; &#1090;&#1086;&#1095;&#1077;&#1082; &#1086;&#1073;&#1089;&#1083;&#1091;&#1078;&#1080;&#1074;&#1072;&#1085;&#1080;&#1103; (TRANSFER_TO_SERVICE_POINT_POOL)</text><text fill="#000000" font-family="sans-serif" font-size="13" lengthAdjust="spacing" textLength="475.6743" x="1065.0156" y="817.9966">/ &#1042;&#1086;&#1079;&#1074;&#1088;&#1072;&#1090; &#1074; &#1087;&#1091;&#1083; &#1090;&#1086;&#1095;&#1077;&#1082; &#1086;&#1073;&#1089;&#1083;&#1091;&#1078;&#1080;&#1074;&#1072;&#1085;&#1080;&#1103; (BACK_TO_SERVICE_POINT_POOL)</text></g><!--link WaitingService to WaitingUser--><g id="link_WaitingService_WaitingUser"><path d="M847.96,747.9069 C757.95,763.3869 651.42,781.7969 651,782.2969 C637.55,798.2769 637.96,812.9769 651,829.2969 C655.8,835.3069 723.5507,850.2396 789.0107,863.5696 " fill="none" id="WaitingService-to-WaitingUser" style="stroke:#181818;stroke-width:1.0;"/><polygon fill="#181818" points="794.89,864.7669,786.8692,859.0515,789.9906,863.7692,785.2728,866.8906,794.89,864.7669" style="stroke:#181818;stroke-width:1.0;"/><text fill="#000000" font-family="sans-serif" font-size="13" lengthAdjust="spacing" textLength="382.2876" x="652" y="802.8638">&#1055;&#1077;&#1088;&#1077;&#1074;&#1086;&#1076; &#1074; &#1087;&#1091;&#1083; &#1089;&#1086;&#1090;&#1088;&#1091;&#1076;&#1085;&#1080;&#1082;&#1086;&#1074; (TRANSFER_TO_USER_POOL)</text><text fill="#000000" font-family="sans-serif" font-size="13" lengthAdjust="spacing" textLength="354.2563" x="666.0156" y="817.9966">/ &#1042;&#1086;&#1079;&#1074;&#1088;&#1072;&#1090; &#1074; &#1087;&#1091;&#1083; &#1089;&#1086;&#1090;&#1088;&#1091;&#1076;&#1085;&#1080;&#1082;&#1086;&#1074; (BACK_TO_USER_POOL)</text></g><!--link WaitingUser to End--><g id="link_WaitingUser_End"><path d="M836.57,912.3669 C770.59,940.2769 671.8358,982.059 611.6358,1007.529 " fill="none" id="WaitingUser-to-End" style="stroke:#181818;stroke-width:1.0;"/><polygon fill="#181818" points="606.11,1009.8669,615.9573,1010.0439,610.7148,1007.9186,612.8401,1002.6762,606.11,1009.8669" style="stroke:#181818;stroke-width:1.0;"/><text fill="#000000" font-family="sans-serif" font-size="13" lengthAdjust="spacing" textLength="178.4199" x="769.7434" y="955.3638">&#1047;&#1072;&#1074;&#1077;&#1088;&#1096;&#1077;&#1085;&#1080;&#1077; &#1074;&#1080;&#1079;&#1080;&#1090;&#1072; (END)</text><text fill="#000000" font-family="sans-serif" font-size="13" lengthAdjust="spacing" textLength="199.9067" x="759" y="970.4966">/ &#1059;&#1076;&#1072;&#1083;&#1077;&#1085;&#1080;&#1077; &#1074;&#1080;&#1079;&#1080;&#1090;&#1072; (DELETED)</text></g><!--link WaitingService to End--><g id="link_WaitingService_End"><path d="M847.72,750.7969 C844.79,751.3069 841.88,751.8069 839,752.2969 C747.78,767.7469 712.2,734.4669 633,782.2969 C557.18,828.0869 554.0036,944.5442 556.6536,998.1142 " fill="none" id="WaitingService-to-End" style="stroke:#181818;stroke-width:1.0;"/><polygon fill="#181818" points="556.95,1004.1069,560.5004,994.9202,556.703,999.113,552.5102,995.3155,556.95,1004.1069" style="stroke:#181818;stroke-width:1.0;"/><text fill="#000000" font-family="sans-serif" font-size="13" lengthAdjust="spacing" textLength="178.4199" x="584.7434" y="882.8638">&#1047;&#1072;&#1074;&#1077;&#1088;&#1096;&#1077;&#1085;&#1080;&#1077; &#1074;&#1080;&#1079;&#1080;&#1090;&#1072; (END)</text><text fill="#000000" font-family="sans-serif" font-size="13" lengthAdjust="spacing" textLength="199.9067" x="574" y="897.9966">/ &#1059;&#1076;&#1072;&#1083;&#1077;&#1085;&#1080;&#1077; &#1074;&#1080;&#1079;&#1080;&#1090;&#1072; (DELETED)</text></g><!--link End to *end*--><g id="link_End_*end*"><path d="M596.86,1057.4069 C620.9,1074.0769 652.39,1096.6769 679,1118.2969 C686.62,1124.4869 690.5002,1127.9537 696.2402,1133.4337 " fill="none" id="End-to-*end*" style="stroke:#181818;stroke-width:1.0;"/><polygon fill="#181818" points="700.58,1137.5769,696.8325,1128.4689,696.9635,1134.1242,691.3082,1134.2552,700.58,1137.5769" style="stroke:#181818;stroke-width:1.0;"/></g><!--SRC=[tLZHRX9157tVhnZxH4rQt_jWii9MDwNGBalxO0t1Tgqa50mi9hwLrgX96ucDqIThr1-W2491w2_C_97tpkooi-n2g48rFhHfbxddt7lFcSlCtieLTlELFOkKxHTvQ_bPvI2lA7REpbk4Vg0TsgPzseAVFZkXbuIzWaTTsYEqmJ_hi2DQ9xH3M9KsM0sUr9srBNmqe1Vi19PqM4rHodRMjiW2_GAFsxI9AtSAaQYXgQOMMrmWsJA9bYnOipTSUaReWBscBNO8EJI11a9_034FHbG0s5PrKq_Sp-Y9p6PQIsi2QJkRitE5_SsALR4yECYh3Paxp6eyFYJEvlCIxpdaNQKzTipPCA35ZbYLywKqOmluH5pAAZq76YdGJGy2U0SWxX1mcfWlTAxkppWDQ9cDP3BkopfTjahZ88zuHxhicF3k-hCCwGbFDwe5INZgkrvpFa9y0rlDth1tl45QmkcELjXJb8Ut7v6bfRkkHcI5o4f20Ys_AORAAcu4Hikw8CHdAAUAwm5Y0F5Tj5F39pix9P6Dk1hLOfx6FamX7g89WG67kEhk5Evm4d0dTkxGyJ7yErnfQCvQHV5bDrFe0B8ajUY3gBO1WKtUWIlGjHTc8Ovi6ceYjGhcCPEIYSRIE69FP1BEQj7kM6VvQJrdwGbp73zO1qa_0MdDaJUIWDW7oMtHGCbsVCu4VOGsv4k_SQlrnYoBQN6DsqrnH4DwPt-A5EfG7iOF9XIOCbN3pBXxN8OQTUuPDty3Ubc7VHdYsNjgT0tx91phk6MqzoCnSdzTfmTIcArdU6B1OYP3kRL9rWlcUKEccrp0D0HkDM6Ebihw6rvs3JpJOII31WVozIqQWZVZkHR2S5CZJQPs7307dUMspUEBPmZyF-tDqThcBe_RjNae96F_quC-9D_vDRvGXCDfARV_r2R59yFZDX5dp-7bWj0BG6fZ5JyHafs8Wggy_JNXfHK8kqteUmpaYNhixDWnttUuOqJKMCors-Bu62xc5NpGSsz8yFTb40gEhL2ElgKPsZImNEWsQi9EiHdYWlK7N1b3IwNZvdKfmx2dHaGleHBmk-k5hwl6sgGWl3m6WX99qsrNm3CZB8vhP9wWpQPef8ipJhPHqD-NR2oJlyLJ4OOZX-AT1wzS4mx4oGtlF6p1HiSjwMpCnqNRBXxWpiGh8kpAhn3O1GZ8yIKE4S3iu51XRyNzcV07oDu2vSBU4tY1TVwoWT_vSHZr-UbTP2LF2w2DREaftSp0SCdmqQT6JJsPMCJt4Y21c9rz70TS5z-B2nWQ_bSC7jnmYguQoNNdgECE6ex1HuqGHLGsCd1yNCjIxt1SujY4A_Kl]--></g></svg>