<?xml version="1.0" encoding="UTF-8" standalone="no"?><svg xmlns="http://www.w3.org/2000/svg" xmlns:xlink="http://www.w3.org/1999/xlink" contentScriptType="application/ecmascript" contentStyleType="text/css" height="911px" preserveAspectRatio="none" style="width:1093px;height:911px;" version="1.1" viewBox="0 0 1093 911" width="1093px" zoomAndPan="magnify"><defs><filter height="300%" id="fexbmf1puvet2" width="300%" x="-1" y="-1"><feGaussianBlur result="blurOut" stdDeviation="2.0"/><feColorMatrix in="blurOut" result="blurOut2" type="matrix" values="0 0 0 0 0 0 0 0 0 0 0 0 0 0 0 0 0 0 .4 0"/><feOffset dx="4.0" dy="4.0" in="blurOut2" result="blurOut3"/><feBlend in="SourceGraphic" in2="blurOut3" mode="normal"/></filter></defs><rect width="100%" height="100%" fill="#FFFFFF"/><g><text fill="#000000" font-family="sans-serif" font-size="18" lengthAdjust="spacingAndGlyphs" textLength="366" x="367.5" y="16.708">Состояния жизненного цикла визита</text><rect fill="#FEFECE" filter="url(#fexbmf1puvet2)" height="52.5938" rx="12.5" ry="12.5" style="stroke: #A80036; stroke-width: 1.5;" width="77" x="371" y="125.9531"/><line style="stroke: #A80036; stroke-width: 1.5;" x1="371" x2="448" y1="168.5469" y2="168.5469"/><text fill="#000000" font-family="sans-serif" font-size="14" lengthAdjust="spacingAndGlyphs" textLength="54" x="382.5" y="143.9482">Создан</text><text fill="#000000" font-family="sans-serif" font-size="14" lengthAdjust="spacingAndGlyphs" textLength="57" x="381" y="160.2451">(DRAFT)</text><rect fill="#FEFECE" filter="url(#fexbmf1puvet2)" height="52.5938" rx="12.5" ry="12.5" style="stroke: #A80036; stroke-width: 1.5;" width="199" x="310" y="255.9531"/><line style="stroke: #A80036; stroke-width: 1.5;" x1="310" x2="509" y1="298.5469" y2="298.5469"/><text fill="#000000" font-family="sans-serif" font-size="14" lengthAdjust="spacingAndGlyphs" textLength="179" x="320" y="273.9482">Ожидает обслуживания</text><text fill="#000000" font-family="sans-serif" font-size="14" lengthAdjust="spacingAndGlyphs" textLength="68" x="375.5" y="290.2451">(WAITING)</text><rect fill="#FEFECE" filter="url(#fexbmf1puvet2)" height="52.5938" rx="12.5" ry="12.5" style="stroke: #A80036; stroke-width: 1.5;" width="83" x="368" y="385.9531"/><line style="stroke: #A80036; stroke-width: 1.5;" x1="368" x2="451" y1="428.5469" y2="428.5469"/><text fill="#000000" font-family="sans-serif" font-size="14" lengthAdjust="spacingAndGlyphs" textLength="54" x="382.5" y="403.9482">Вызван</text><text fill="#000000" font-family="sans-serif" font-size="14" lengthAdjust="spacingAndGlyphs" textLength="63" x="378" y="420.2451">(CALLED)</text><rect fill="#FEFECE" filter="url(#fexbmf1puvet2)" height="52.5938" rx="12.5" ry="12.5" style="stroke: #A80036; stroke-width: 1.5;" width="136" x="298.5" y="551.9531"/><line style="stroke: #A80036; stroke-width: 1.5;" x1="298.5" x2="434.5" y1="594.5469" y2="594.5469"/><text fill="#000000" font-family="sans-serif" font-size="14" lengthAdjust="spacingAndGlyphs" textLength="116" x="308.5" y="569.9482">Обслуживается</text><text fill="#000000" font-family="sans-serif" font-size="14" lengthAdjust="spacingAndGlyphs" textLength="71" x="331" y="586.2451">(SERVING)</text><rect fill="#FEFECE" filter="url(#fexbmf1puvet2)" height="52.5938" rx="12.5" ry="12.5" style="stroke: #A80036; stroke-width: 1.5;" width="93" x="6" y="717.9531"/><line style="stroke: #A80036; stroke-width: 1.5;" x1="6" x2="99" y1="760.5469" y2="760.5469"/><text fill="#000000" font-family="sans-serif" font-size="14" lengthAdjust="spacingAndGlyphs" textLength="69" x="18" y="735.9482">Отложен</text><text fill="#000000" font-family="sans-serif" font-size="14" lengthAdjust="spacingAndGlyphs" textLength="73" x="16" y="752.2451">(PENDING)</text><rect fill="#FEFECE" filter="url(#fexbmf1puvet2)" height="52.5938" rx="12.5" ry="12.5" style="stroke: #A80036; stroke-width: 1.5;" width="117" x="308" y="717.9531"/><line style="stroke: #A80036; stroke-width: 1.5;" x1="308" x2="425" y1="760.5469" y2="760.5469"/><text fill="#000000" font-family="sans-serif" font-size="14" lengthAdjust="spacingAndGlyphs" textLength="74" x="329.5" y="735.9482">Завершён</text><text fill="#000000" font-family="sans-serif" font-size="14" lengthAdjust="spacingAndGlyphs" textLength="97" x="318" y="752.2451">(COMPLETED)</text><rect fill="#FEFECE" filter="url(#fexbmf1puvet2)" height="52.5938" rx="12.5" ry="12.5" style="stroke: #A80036; stroke-width: 1.5;" width="112" x="785.5" y="468.9531"/><line style="stroke: #A80036; stroke-width: 1.5;" x1="785.5" x2="897.5" y1="511.5469" y2="511.5469"/><text fill="#000000" font-family="sans-serif" font-size="14" lengthAdjust="spacingAndGlyphs" textLength="66" x="808.5" y="486.9482">Отменён</text><text fill="#000000" font-family="sans-serif" font-size="14" lengthAdjust="spacingAndGlyphs" textLength="92" x="795.5" y="503.2451">(CANCELLED)</text><rect fill="#FEFECE" filter="url(#fexbmf1puvet2)" height="52.5938" rx="12.5" ry="12.5" style="stroke: #A80036; stroke-width: 1.5;" width="101" x="611" y="634.9531"/><line style="stroke: #A80036; stroke-width: 1.5;" x1="611" x2="712" y1="677.5469" y2="677.5469"/><text fill="#000000" font-family="sans-serif" font-size="14" lengthAdjust="spacingAndGlyphs" textLength="51" x="636" y="652.9482">Неявка</text><text fill="#000000" font-family="sans-serif" font-size="14" lengthAdjust="spacingAndGlyphs" textLength="81" x="621" y="669.2451">(NO_SHOW)</text><rect fill="#FEFECE" filter="url(#fexbmf1puvet2)" height="52.5938" rx="12.5" ry="12.5" style="stroke: #A80036; stroke-width: 1.5;" width="114" x="547.5" y="847.9531"/><line style="stroke: #A80036; stroke-width: 1.5;" x1="547.5" x2="661.5" y1="890.5469" y2="890.5469"/><text fill="#000000" font-family="sans-serif" font-size="14" lengthAdjust="spacingAndGlyphs" textLength="94" x="557.5" y="865.9482">Архивирован</text><text fill="#000000" font-family="sans-serif" font-size="14" lengthAdjust="spacingAndGlyphs" textLength="81" x="564" y="882.2451">(ARCHIVED)</text><ellipse cx="409.5" cy="38.9531" fill="#000000" filter="url(#fexbmf1puvet2)" rx="10" ry="10" style="stroke: none; stroke-width: 1.0;"/><!--MD5=[c437118b2706405049936a1b53a98f1f]
link *start to Draft--><path d="M409.5,49.0731 C409.5,64.5231 409.5,96.4731 409.5,120.6031 " fill="none" id="*start-&gt;Draft" style="stroke: #A80036; stroke-width: 1.0;"/><polygon fill="#A80036" points="409.5,125.6231,413.5,116.6231,409.5,120.6231,405.5,116.6231,409.5,125.6231" style="stroke: #A80036; stroke-width: 1.0;"/><text fill="#000000" font-family="sans-serif" font-size="13" lengthAdjust="spacingAndGlyphs" textLength="140" x="410.5" y="92.02">регистрация визита</text><!--MD5=[b792bd1bcc81bd3bfaacdf79daae7bf9]
link Draft to Waiting--><path d="M409.5,179.0531 C409.5,199.7131 409.5,228.8631 409.5,250.7831 " fill="none" id="Draft-&gt;Waiting" style="stroke: #A80036; stroke-width: 1.0;"/><polygon fill="#A80036" points="409.5,255.9031,413.5,246.9031,409.5,250.9031,405.5,246.9031,409.5,255.9031" style="stroke: #A80036; stroke-width: 1.0;"/><text fill="#000000" font-family="sans-serif" font-size="13" lengthAdjust="spacingAndGlyphs" textLength="175" x="410.5" y="222.02">подтверждение очереди</text><!--MD5=[e1a8fad36e310757197c70201b0d655a]
link Waiting to Called--><path d="M311.36,309.0631 C288.11,320.2931 273.39,335.6531 286.5,355.9531 C303.31,381.9831 335.59,395.9331 362.86,403.3331 " fill="none" id="Waiting-&gt;Called" style="stroke: #A80036; stroke-width: 1.0;"/><polygon fill="#A80036" points="367.89,404.6431,360.1882,398.5046,363.0513,403.3833,358.1725,406.2465,367.89,404.6431" style="stroke: #A80036; stroke-width: 1.0;"/><text fill="#000000" font-family="sans-serif" font-size="13" lengthAdjust="spacingAndGlyphs" textLength="198" x="287.5" y="352.02">оператор вызывает клиента</text><!--MD5=[dd96c3a70cacdcedc595b18f76083c9d]
link Called to Waiting--><path d="M451.09,395.0931 C476.89,382.2331 502.95,362.5731 490.5,338.9531 C484.94,328.3931 476.36,319.4631 466.83,312.0531 " fill="none" id="Called-&gt;Waiting" style="stroke: #A80036; stroke-width: 1.0;"/><polygon fill="#A80036" points="462.7,308.9731,467.5197,317.5621,466.7069,311.964,472.305,311.1511,462.7,308.9731" style="stroke: #A80036; stroke-width: 1.0;"/><text fill="#000000" font-family="sans-serif" font-size="13" lengthAdjust="spacingAndGlyphs" textLength="149" x="495.5" y="352.02">возвращён в очередь</text><!--MD5=[c3d10b07d8d324e16caf29769a161dfd]
link Called to Serving--><path d="M385.37,439.1931 C378.61,447.9731 372.12,458.2931 368.5,468.9531 C359.98,494.0531 360.22,524.3431 362.17,546.5331 " fill="none" id="Called-&gt;Serving" style="stroke: #A80036; stroke-width: 1.0;"/><polygon fill="#A80036" points="362.66,551.7031,365.7685,542.3577,362.1752,546.7267,357.8062,543.1334,362.66,551.7031" style="stroke: #A80036; stroke-width: 1.0;"/><text fill="#000000" font-family="sans-serif" font-size="13" lengthAdjust="spacingAndGlyphs" textLength="183" x="369.5" y="500.02">клиент подтвердил вызов</text><!--MD5=[1f8438eacb2c02f322412086c2a4b7d5]
link Serving to Completed--><path d="M359.79,604.9631 C357.65,614.3231 355.56,625.0531 354.5,634.9531 C352,658.3731 352,664.5331 354.5,687.9531 C355.38,696.1531 356.96,704.9131 358.7,713.0031 " fill="none" id="Serving-&gt;Completed" style="stroke: #A80036; stroke-width: 1.0;"/><polygon fill="#A80036" points="359.79,717.9431,361.7424,708.2897,358.7053,713.0622,353.9329,710.0252,359.79,717.9431" style="stroke: #A80036; stroke-width: 1.0;"/><text fill="#000000" font-family="sans-serif" font-size="13" lengthAdjust="spacingAndGlyphs" textLength="237" x="355.5" y="666.02">оператор завершил обслуживание</text><!--MD5=[0be81cba125d86fbbfa329f488da98df]
link Waiting to Cancelled--><path d="M509.23,295.3431 C554.88,303.4531 608.68,316.8931 653.5,338.9531 C718.58,370.9831 780.73,429.7531 814.73,465.1431 " fill="none" id="Waiting-&gt;Cancelled" style="stroke: #A80036; stroke-width: 1.0;"/><polygon fill="#A80036" points="818.34,468.9231,815.0096,459.6545,814.8839,465.3099,809.2284,465.1842,818.34,468.9231" style="stroke: #A80036; stroke-width: 1.0;"/><text fill="#000000" font-family="sans-serif" font-size="13" lengthAdjust="spacingAndGlyphs" textLength="208" x="682.5" y="352.02">клиент или оператор отменил</text><!--MD5=[91044e1a05fc2d36de752bbc41915640]
link Called to NoShow--><path d="M451.25,420.8231 C483.39,428.3031 527.27,442.6531 557.5,468.9531 C564.29,474.8631 618.43,577.7631 645.79,630.2231 " fill="none" id="Called-&gt;NoShow" style="stroke: #A80036; stroke-width: 1.0;"/><polygon fill="#A80036" points="648.19,634.8331,647.5667,625.004,645.8742,630.4017,640.4765,628.7092,648.19,634.8331" style="stroke: #A80036; stroke-width: 1.0;"/><text fill="#000000" font-family="sans-serif" font-size="13" lengthAdjust="spacingAndGlyphs" textLength="176" x="588.5" y="500.02">истёк таймаут ожидания</text><!--MD5=[2ea4d47f59fd75b6673a119a54b4e718]
link Serving to Paused--><path d="M298.21,586.5731 C229.76,594.9331 130.35,610.8131 100.5,634.9531 C76.58,654.3031 64.23,688.0131 58.09,712.7331 " fill="none" id="Serving-&gt;Paused" style="stroke: #A80036; stroke-width: 1.0;"/><polygon fill="#A80036" points="56.88,717.8631,62.8568,710.0351,58.0387,712.9992,55.0746,708.1811,56.88,717.8631" style="stroke: #A80036; stroke-width: 1.0;"/><text fill="#000000" font-family="sans-serif" font-size="13" lengthAdjust="spacingAndGlyphs" textLength="243" x="101.5" y="666.02">обслуживание поставлено на паузу</text><!--MD5=[9975db72f6b2cc4d6736ad5361fda304]
link Paused to Waiting--><path d="M50.85,717.5231 C50.15,695.2131 50.86,662.3931 58.5,634.9531 C80.88,554.5031 97.13,536.3031 146.5,468.9531 C194.44,403.5531 207.2,384.1731 274.5,338.9531 C290.69,328.0731 309.35,318.7231 327.53,310.9531 " fill="none" id="Paused-&gt;Waiting" style="stroke: #A80036; stroke-width: 1.0;"/><polygon fill="#A80036" points="332.14,309.0131,322.2931,308.8191,327.5318,310.9534,325.3975,316.1922,332.14,309.0131" style="stroke: #A80036; stroke-width: 1.0;"/><text fill="#000000" font-family="sans-serif" font-size="13" lengthAdjust="spacingAndGlyphs" textLength="205" x="147.5" y="500.02">возобновление обслуживания</text><!--MD5=[2508bff857825e85727deea5a39aefd4]
link Completed to Archived--><path d="M357.7,771.1931 C354.25,786.3631 353.22,805.0431 363.5,817.9531 C385.44,845.5231 478.32,860.5531 542.15,867.7931 " fill="none" id="Completed-&gt;Archived" style="stroke: #A80036; stroke-width: 1.0;"/><polygon fill="#A80036" points="547.46,868.3831,538.9615,863.4057,542.4911,867.8263,538.0705,871.3559,547.46,868.3831" style="stroke: #A80036; stroke-width: 1.0;"/><text fill="#000000" font-family="sans-serif" font-size="13" lengthAdjust="spacingAndGlyphs" textLength="213" x="364.5" y="814.02">завершение жизненного цикла</text><!--MD5=[5b42bb1e51bab96aea6de97de0a66424]
link Cancelled to Archived--><path d="M847.4,522.2931 C857.76,574.4631 873.42,693.9431 820.5,770.9531 C785.27,822.2231 717.28,848.5831 666.94,861.6431 " fill="none" id="Cancelled-&gt;Archived" style="stroke: #A80036; stroke-width: 1.0;"/><polygon fill="#A80036" points="661.82,862.9431,671.5273,864.6072,666.6665,861.7136,669.5601,856.8529,661.82,862.9431" style="stroke: #A80036; stroke-width: 1.0;"/><text fill="#000000" font-family="sans-serif" font-size="13" lengthAdjust="spacingAndGlyphs" textLength="223" x="858.5" y="666.02">визит закрыт без обслуживания</text><!--MD5=[343bb8a6e5aafd7c7db1f48815bf1058]
link NoShow to Archived--><path d="M645.34,688.1931 C640.24,697.3031 635.02,707.8131 631.5,717.9531 C617.03,759.6831 610.08,810.5031 606.91,842.4331 " fill="none" id="NoShow-&gt;Archived" style="stroke: #A80036; stroke-width: 1.0;"/><polygon fill="#A80036" points="606.4,847.7731,611.2318,839.1909,606.872,842.7955,603.2675,838.4357,606.4,847.7731" style="stroke: #A80036; stroke-width: 1.0;"/><text fill="#000000" font-family="sans-serif" font-size="13" lengthAdjust="spacingAndGlyphs" textLength="183" x="632.5" y="749.02">визит закрыт по таймауту</text><!--MD5=[856491e8000698348e433c46f5128ff9]
@startuml
skinparam backgroundColor #FFFFFF

title Состояния жизненного цикла визита

state "Создан\n(DRAFT)" as Draft
state "Ожидает обслуживания\n(WAITING)" as Waiting
state "Вызван\n(CALLED)" as Called
state "Обслуживается\n(SERVING)" as Serving
state "Отложен\n(PENDING)" as Paused
state "Завершён\n(COMPLETED)" as Completed
state "Отменён\n(CANCELLED)" as Cancelled
state "Неявка\n(NO_SHOW)" as NoShow
state "Архивирован\n(ARCHIVED)" as Archived

[*] - -> Draft : регистрация визита
Draft - -> Waiting : подтверждение очереди
Waiting - -> Called : оператор вызывает клиента
Called - -> Serving : клиент подтвердил вызов
Serving - -> Completed : оператор завершил обслуживание
Waiting - -> Cancelled : клиент или оператор отменил
Called - -> NoShow : истёк таймаут ожидания
Called - -> Waiting : возвращён в очередь
Serving - -> Paused : обслуживание поставлено на паузу
Paused - -> Waiting : возобновление обслуживания
Completed - -> Archived : завершение жизненного цикла
Cancelled - -> Archived : визит закрыт без обслуживания
NoShow - -> Archived : визит закрыт по таймауту
@enduml

PlantUML version 1.2020.02(Sun Mar 01 10:22:07 UTC 2020)
(GPL source distribution)
Java Runtime: OpenJDK Runtime Environment
JVM: OpenJDK 64-Bit Server VM
Java Version: 21.0.2+13-58
Operating System: Linux
Default Encoding: UTF-8
Language: en
Country: null
--></g></svg>