<?xml version="1.0" encoding="UTF-8" standalone="no"?><svg xmlns="http://www.w3.org/2000/svg" xmlns:xlink="http://www.w3.org/1999/xlink" contentScriptType="application/ecmascript" contentStyleType="text/css" height="195px" preserveAspectRatio="none" style="width:454px;height:195px;" version="1.1" viewBox="0 0 454 195" width="454px" zoomAndPan="magnify"><defs><filter height="300%" id="f42u9wlbnkt43" width="300%" x="-1" y="-1"><feGaussianBlur result="blurOut" stdDeviation="2.0"/><feColorMatrix in="blurOut" result="blurOut2" type="matrix" values="0 0 0 0 0 0 0 0 0 0 0 0 0 0 0 0 0 0 .4 0"/><feOffset dx="4.0" dy="4.0" in="blurOut2" result="blurOut3"/><feBlend in="SourceGraphic" in2="blurOut3" mode="normal"/></filter></defs><g><text fill="#000000" font-family="sans-serif" font-size="18" lengthAdjust="spacingAndGlyphs" textLength="440" x="2" y="16.708">VisitService: взаимодействие с зависимостями</text><!--MD5=[a928950a7807a79b8234feadd5d78369]
class VisitService--><rect fill="#FEFECE" filter="url(#f42u9wlbnkt43)" height="48" id="VisitService" style="stroke: #A80036; stroke-width: 1.5;" width="103" x="166.5" y="28.9531"/><ellipse cx="181.5" cy="44.9531" fill="#ADD1B2" rx="11" ry="11" style="stroke: #A80036; stroke-width: 1.0;"/><path d="M184.4688,50.5938 Q183.8906,50.8906 183.25,51.0313 Q182.6094,51.1875 181.9063,51.1875 Q179.4063,51.1875 178.0781,49.5469 Q176.7656,47.8906 176.7656,44.7656 Q176.7656,41.6406 178.0781,39.9844 Q179.4063,38.3281 181.9063,38.3281 Q182.6094,38.3281 183.25,38.4844 Q183.9063,38.6406 184.4688,38.9375 L184.4688,41.6563 Q183.8438,41.0781 183.25,40.8125 Q182.6563,40.5313 182.0313,40.5313 Q180.6875,40.5313 180,41.6094 Q179.3125,42.6719 179.3125,44.7656 Q179.3125,46.8594 180,47.9375 Q180.6875,49 182.0313,49 Q182.6563,49 183.25,48.7344 Q183.8438,48.4531 184.4688,47.875 L184.4688,50.5938 Z "/><text fill="#000000" font-family="sans-serif" font-size="12" lengthAdjust="spacingAndGlyphs" textLength="71" x="195.5" y="49.1074">VisitService</text><line style="stroke: #A80036; stroke-width: 1.5;" x1="167.5" x2="268.5" y1="60.9531" y2="60.9531"/><line style="stroke: #A80036; stroke-width: 1.5;" x1="167.5" x2="268.5" y1="68.9531" y2="68.9531"/><!--MD5=[6ad6945def856d0748cfc6785c16a6a7]
class BranchService--><rect fill="#FEFECE" filter="url(#f42u9wlbnkt43)" height="48" id="BranchService" style="stroke: #A80036; stroke-width: 1.5;" width="121" x="81.5" y="136.9531"/><ellipse cx="96.5" cy="152.9531" fill="#ADD1B2" rx="11" ry="11" style="stroke: #A80036; stroke-width: 1.0;"/><path d="M99.4688,158.5938 Q98.8906,158.8906 98.25,159.0313 Q97.6094,159.1875 96.9063,159.1875 Q94.4063,159.1875 93.0781,157.5469 Q91.7656,155.8906 91.7656,152.7656 Q91.7656,149.6406 93.0781,147.9844 Q94.4063,146.3281 96.9063,146.3281 Q97.6094,146.3281 98.25,146.4844 Q98.9063,146.6406 99.4688,146.9375 L99.4688,149.6563 Q98.8438,149.0781 98.25,148.8125 Q97.6563,148.5313 97.0313,148.5313 Q95.6875,148.5313 95,149.6094 Q94.3125,150.6719 94.3125,152.7656 Q94.3125,154.8594 95,155.9375 Q95.6875,157 97.0313,157 Q97.6563,157 98.25,156.7344 Q98.8438,156.4531 99.4688,155.875 L99.4688,158.5938 Z "/><text fill="#000000" font-family="sans-serif" font-size="12" lengthAdjust="spacingAndGlyphs" textLength="89" x="110.5" y="157.1074">BranchService</text><line style="stroke: #A80036; stroke-width: 1.5;" x1="82.5" x2="201.5" y1="168.9531" y2="168.9531"/><line style="stroke: #A80036; stroke-width: 1.5;" x1="82.5" x2="201.5" y1="176.9531" y2="176.9531"/><!--MD5=[8736b572be702d5ae6361a5a5cce2687]
class EventService--><rect fill="#FEFECE" filter="url(#f42u9wlbnkt43)" height="48" id="EventService" style="stroke: #A80036; stroke-width: 1.5;" width="112" x="238" y="136.9531"/><ellipse cx="253" cy="152.9531" fill="#ADD1B2" rx="11" ry="11" style="stroke: #A80036; stroke-width: 1.0;"/><path d="M255.9688,158.5938 Q255.3906,158.8906 254.75,159.0313 Q254.1094,159.1875 253.4063,159.1875 Q250.9063,159.1875 249.5781,157.5469 Q248.2656,155.8906 248.2656,152.7656 Q248.2656,149.6406 249.5781,147.9844 Q250.9063,146.3281 253.4063,146.3281 Q254.1094,146.3281 254.75,146.4844 Q255.4063,146.6406 255.9688,146.9375 L255.9688,149.6563 Q255.3438,149.0781 254.75,148.8125 Q254.1563,148.5313 253.5313,148.5313 Q252.1875,148.5313 251.5,149.6094 Q250.8125,150.6719 250.8125,152.7656 Q250.8125,154.8594 251.5,155.9375 Q252.1875,157 253.5313,157 Q254.1563,157 254.75,156.7344 Q255.3438,156.4531 255.9688,155.875 L255.9688,158.5938 Z "/><text fill="#000000" font-family="sans-serif" font-size="12" lengthAdjust="spacingAndGlyphs" textLength="80" x="267" y="157.1074">EventService</text><line style="stroke: #A80036; stroke-width: 1.5;" x1="239" x2="349" y1="168.9531" y2="168.9531"/><line style="stroke: #A80036; stroke-width: 1.5;" x1="239" x2="349" y1="176.9531" y2="176.9531"/><!--MD5=[74bf68b22fb1621006db700a076feeed]
link VisitService to BranchService--><path d="M201.51,76.9531 C189.84,93.2331 174.13,115.1431 161.78,132.3631 " fill="none" id="VisitService-&gt;BranchService" style="stroke: #A80036; stroke-width: 1.0;"/><polygon fill="#A80036" points="158.72,136.6331,167.1994,131.6232,161.6208,132.5606,160.6834,126.982,158.72,136.6331" style="stroke: #A80036; stroke-width: 1.0;"/><!--MD5=[cf99a0e6e886722ef32685d5c7192562]
link VisitService to EventService--><path d="M234.49,76.9531 C246.16,93.2331 261.87,115.1431 274.22,132.3631 " fill="none" id="VisitService-&gt;EventService" style="stroke: #A80036; stroke-width: 1.0;"/><polygon fill="#A80036" points="277.28,136.6331,275.3166,126.982,274.3792,132.5606,268.8006,131.6232,277.28,136.6331" style="stroke: #A80036; stroke-width: 1.0;"/><!--MD5=[509d3cad1e33f1da2c61767614bc52e4]
@startuml
title VisitService: взаимодействие с зависимостями
class VisitService
class BranchService
class EventService

VisitService - -> BranchService
VisitService - -> EventService
@enduml

PlantUML version 1.2020.02(Sun Mar 01 10:22:07 UTC 2020)
(GPL source distribution)
Java Runtime: OpenJDK Runtime Environment
JVM: OpenJDK 64-Bit Server VM
Java Version: 21.0.2+13-58
Operating System: Linux
Default Encoding: UTF-8
Language: en
Country: null
--></g></svg>